<svg width="310" height="231" viewBox="0 0 310 231" fill="none" xmlns="http://www.w3.org/2000/svg">
<path d="M248.197 127.913C248.197 128.601 247.51 129.152 246.96 129.152C239.994 128.234 233.028 127.316 226.062 126.399L188.805 121.444C176.34 119.792 163.921 118.187 151.547 116.627C150.86 116.489 150.31 115.939 150.447 115.251C150.631 113.782 150.768 112.269 150.86 110.709C151.685 97.9088 151.135 87.3111 150.722 74.5112C150.585 66.9414 149.072 56.7565 149.622 49.5995C146.873 46.9845 143.161 42.8556 143.986 35.6986C146.323 15.0537 166.807 2.39142 187.43 2.39142C204.89 2.39142 219.463 14.2278 223.725 30.3309C224.184 32.0743 224.504 33.8635 224.688 35.6986C224.871 37.075 224.962 38.4971 224.962 39.9652C224.962 40.3323 224.962 40.6534 224.962 40.9287C225.237 44.9659 225.833 49.0031 226.75 53.0404C229.499 65.7026 234.311 77.952 238.711 90.0637C243.11 102.451 247.097 114.838 248.197 127.913Z" fill="#36174D"/>
<path d="M202.416 95.8442L178.769 96.67L177.669 77.8143L177.531 75.4746L177.119 69.2811L198.979 66.666L202.416 95.8442Z" fill="#CB6D58"/>
<path d="M209.015 55.5179C206.127 67.2167 195.541 76.0252 182.893 76.0252C168.045 76.0252 155.946 63.9135 155.946 49.0491C155.946 46.0212 156.496 43.1309 157.459 40.3783C160.758 30.4687 169.832 23.1741 180.693 22.3483C182.893 27.1654 185.368 31.845 188.392 36.2493C193.891 43.9567 200.766 50.7007 209.015 55.5179Z" fill="#CB6D58"/>
<path d="M208.052 65.7026C213.291 65.7026 217.539 61.4508 217.539 56.2059C217.539 50.9611 213.291 46.7092 208.052 46.7092C202.813 46.7092 198.566 50.9611 198.566 56.2059C198.566 61.4508 202.813 65.7026 208.052 65.7026Z" fill="#CB6D58"/>
<path d="M209.015 55.5177C203.378 59.6467 196.229 62.124 188.255 62.124C172.994 62.124 160.209 52.765 157.459 40.378C157.001 38.6347 156.771 36.8913 156.771 35.1479C161.171 26.8899 168.045 20.4212 176.294 16.7051C176.935 16.4299 177.577 16.2005 178.218 16.017C178.952 18.1273 179.777 20.2377 180.693 22.3481C182.893 27.1652 185.368 31.8448 188.392 36.249C193.892 43.9565 200.766 50.7005 209.015 55.5177Z" fill="#CB6D58"/>
<path d="M304.427 219.439C292.879 229.348 261.395 231.963 246.685 210.08C236.969 195.49 231.241 177.002 229.499 154.613L152.097 203.611C151.684 203.198 151.41 203.06 151.135 202.785C148.202 198.84 145.864 194.481 144.123 189.71C143.481 187.691 142.931 185.581 142.473 183.379C141.923 181.314 141.511 179.25 140.411 177.323C138.349 174.02 134.499 172.368 131.749 169.891C128.037 166.45 125.838 161.77 125.288 156.953C117.451 163.835 93.392 184.342 74.6944 194.665C62.7334 201.271 45.5484 209.804 32.3502 207.877C16.5397 205.4 3.20389 195.903 1.00418 180.488C0.454248 178.103 0.133524 175.717 0.0418688 173.332C-0.50806 161.495 4.44103 150.484 10.0778 140.437C12.9649 135.207 16.1271 130.115 19.1517 125.022C22.3597 119.609 25.5676 114.241 28.7755 108.919C28.9588 108.552 29.142 108.231 29.3253 107.956C30.4251 106.121 31.5252 104.286 32.6251 102.451C34.2748 103.276 35.9244 104.102 37.5742 104.928C47.0147 109.699 56.4552 114.47 65.8957 119.242C66.858 119.655 67.2703 119.792 67.8203 119.93C71.2573 118.278 74.0071 116.351 76.8942 114.425C90.505 105.341 104.253 96.257 117.589 86.898C131.75 76.8508 147.01 79.8787 162.821 81.668C171.619 82.769 180.968 84.6958 189.904 85.6593C192.837 86.0263 195.816 86.3474 198.841 86.6227C214.926 88.4119 231.287 89.3754 247.372 91.8528C253.421 92.8162 261.945 94.0549 266.894 98.3215C280.505 109.745 296.178 153.512 303.327 173.056C307.452 184.342 315.426 209.942 304.427 219.439Z" fill="#19C5FF"/>
<path d="M242.56 167.826C239.077 160.027 235.594 152.182 232.111 144.291C224.55 150.347 218.638 158.329 214.926 167.138C214.651 168.101 213.276 168.239 212.727 167.413C207.915 159.018 204.065 150.209 201.178 141.125C199.803 142.41 198.52 143.74 197.329 145.117C191.279 151.585 186.192 158.742 182.068 166.45C181.656 167.276 180.418 167 180.006 166.312C175.331 157.504 172.307 147.869 171.207 138.097C169.832 139.199 168.503 140.391 167.22 141.676C160.758 147.869 154.984 154.751 150.172 162.321C149.76 163.009 148.522 163.009 148.11 162.183C144.398 153.788 142.061 144.841 141.373 135.62C135.736 140.437 130.375 145.805 125.563 151.448C125.104 151.998 124.646 152.549 124.188 153.099C124.005 153.375 123.73 153.558 123.363 153.65C123.272 152.641 123.226 151.631 123.226 150.622C124.05 149.704 124.875 148.787 125.7 147.869C130.558 142.272 135.874 137.088 141.648 132.317C142.473 131.629 143.573 132.317 143.573 133.28C143.985 142.226 146.048 151.035 149.485 159.155C150.493 157.595 151.547 156.082 152.647 154.613C158.009 147.319 164.333 140.575 171.344 134.794C172.169 134.106 173.269 134.657 173.407 135.758C174.094 145.254 176.844 154.751 181.106 163.284C182.022 161.633 182.984 160.027 183.993 158.467C188.804 151.035 194.441 144.153 200.903 138.097C201.59 137.409 202.69 137.822 202.965 138.648C205.577 147.594 209.152 156.127 213.689 164.11C214.33 162.734 215.018 161.357 215.751 159.981C219.738 152.824 225.238 146.493 231.699 141.538C232.249 141.125 233.211 141.125 233.624 141.951C237.29 150.209 240.956 158.467 244.622 166.725C245.31 168.101 243.11 169.202 242.56 167.826Z" fill="white"/>
<path d="M154.984 220.953C154.297 221.09 153.884 220.54 153.609 219.989C152.418 216.686 151.272 213.383 150.172 210.08C146.231 198.61 142.427 187.141 138.761 175.671C135.187 174.295 132.162 171.955 129.687 168.927C126.113 164.523 124.051 159.155 123.363 153.65C123.272 152.641 123.226 151.632 123.226 150.622C123.226 149.705 123.226 148.787 123.226 147.87C123.776 138.923 127.488 130.39 132.025 122.683C132.712 121.444 134.774 122.683 133.949 124.059C129.962 130.803 126.663 138.235 125.838 146.218C125.746 146.768 125.7 147.319 125.7 147.87C125.609 149.062 125.563 150.255 125.563 151.448C125.838 155.715 126.938 159.844 129 163.56C130.237 166.037 132.025 168.239 134.087 170.028C135.095 170.946 136.241 171.726 137.524 172.368C138.074 172.735 138.669 173.056 139.311 173.332C139.723 173.469 140.136 173.607 140.411 173.745C140.823 174.02 140.961 174.433 141.098 174.846C145.773 189.802 150.722 204.666 155.946 219.439C156.084 220.127 155.534 220.815 154.984 220.953Z" fill="#36174D"/>
<path d="M275.144 183.929C273.219 187.095 269.782 189.022 266.345 189.848C262.633 190.811 258.921 190.398 255.209 189.848C252.322 189.985 249.435 189.572 246.822 188.471C244.485 187.37 242.423 185.581 240.636 183.654C236.924 179.663 234.311 174.846 232.662 169.616C231.012 164.385 230.187 158.33 231.562 152.824C232.112 150.622 233.074 148.282 234.586 146.493C234.999 143.741 235.274 141.126 236.099 138.51C237.336 134.657 239.948 131.216 244.073 130.253C247.785 129.564 252.047 130.803 255.346 132.317C258.783 133.969 261.67 136.171 264.283 138.648C269.782 144.291 273.219 151.723 275.006 159.293C275.969 163.422 276.518 167.826 276.793 172.093C277.068 176.084 277.343 180.351 275.144 183.929Z" fill="#CB6D58"/>
<path d="M284.492 188.058C281.193 192.004 275.647 195.169 267.857 197.555C260.433 199.849 254.338 200.262 249.572 198.794L242.285 179.8C249.251 180.076 255.85 179.25 262.082 177.323C269.232 175.029 274.089 172.781 276.656 170.579L284.492 188.058Z" fill="white"/>
<path d="M177.256 79.0531C177.44 80.7964 180.143 81.6682 185.368 81.6682C191.325 81.6682 196.092 80.0165 199.666 76.7133L204.753 87.3111L193.754 113.324L184.405 95.2938L166.396 105.479C169.695 95.8443 171.757 89.7426 172.582 87.1735C173.315 84.5126 174.873 81.8058 177.256 79.0531Z" fill="white"/>
<path d="M93.1169 26.6148C90.9172 27.8535 87.48 27.9911 84.3179 27.8534C82.2556 27.7158 80.3309 27.5782 78.8186 27.4406C75.3815 32.9459 76.3441 38.4512 76.6191 44.92C76.6191 45.6081 75.9317 46.021 75.2443 46.021C71.2115 46.2963 67.1786 46.5715 63.1458 46.8468C63.1458 47.5349 62.8709 48.0855 62.1835 48.2231C61.6335 48.3607 60.8086 47.9479 60.8086 47.1221C60.8086 46.9386 60.8086 46.7551 60.8086 46.5716C60.5337 46.2963 60.3961 46.021 60.3961 45.7457C60.4878 45.4705 60.5794 45.287 60.671 45.1953C60.1211 38.176 59.8463 30.7437 62.1835 24.1373C64.1082 19.0449 67.4079 14.2278 72.2197 12.3009C75.2443 11.0622 78.4064 10.9246 81.431 11.3375C84.3181 11.7504 87.3428 12.301 90.0924 13.5396C90.9173 13.9984 91.6963 14.503 92.4295 15.0536C93.0711 15.6041 93.6669 16.2923 94.2169 17.1181C94.6751 17.8521 95.0415 18.6779 95.3165 19.5955C96.4163 23.4492 95.3167 25.5137 93.1169 26.6148Z" fill="#CB6D58"/>
<path d="M78.9568 27.9912C77.7194 30.6062 77.1695 33.4964 77.5819 36.3867C77.5819 36.9373 77.3071 37.6254 76.6196 37.7631C76.0697 37.9007 75.2448 37.4878 75.2448 36.7996C74.8324 33.4964 75.3821 30.1932 76.7569 27.1653C77.0319 26.6148 77.5819 26.2019 78.2694 26.4771C78.8193 26.6148 79.2317 27.303 78.9568 27.9912Z" fill="white"/>
<path d="M90.0927 60.1973C89.1304 64.6016 87.6179 69.0059 85.1433 72.722C82.6686 76.3004 79.2315 79.1907 75.107 80.567C71.5325 81.9433 67.8204 81.9434 64.3833 80.7047C63.5584 82.4939 62.7337 84.4207 61.4964 86.0723C59.2967 89.3755 55.3096 92.1282 51.0476 91.1648C47.8855 90.6142 45.2735 87.311 45.686 84.0078C45.5943 83.8243 45.5483 83.6409 45.5483 83.4573C45.8233 82.081 46.0068 80.7505 46.0985 79.4659C47.0608 69.694 45.8235 59.5092 49.5355 50.1501C51.1853 46.2964 53.5222 42.7179 56.8218 40.2405C60.6713 37.2126 65.346 36.1115 70.1578 35.8362C74.4198 35.561 78.8191 35.6987 82.8061 37.3503C86.7931 39.1395 89.6803 42.4427 90.7802 46.7093C91.7425 51.1136 91.0551 55.7931 90.0927 60.1973Z" fill="#CB6D58"/>
<path d="M112.502 54.279C110.577 55.5177 108.378 56.0683 106.59 57.5822C100.816 62.2618 99.9912 70.5197 96.9665 76.8509C93.667 83.7325 89.1301 90.0636 83.2183 94.8808C79.3688 98.0463 75.1066 100.661 70.5697 102.588C65.4829 104.79 59.8462 106.304 54.4844 104.79C49.3975 103.276 45.9606 99.0097 44.9982 93.9173C44.1734 89.6507 44.8608 85.384 46.0982 81.2551C46.0065 81.0715 45.9606 80.8422 45.9606 80.5669C45.9606 79.3741 46.0521 78.1813 46.2354 76.9885C47.1978 72.3089 49.8101 68.0423 53.2472 64.8768C57.0967 61.2983 62.0458 59.0962 67.1327 58.2704C71.2571 57.7199 75.6568 57.8575 79.7813 58.6833C87.2053 50.8382 97.6537 46.1587 108.377 45.1953C113.877 44.6447 118.139 50.7005 112.502 54.279Z" fill="#CB6D58"/>
<path d="M83.2186 95.9819C82.4854 98.184 81.752 100.386 81.0188 102.588C69.4703 99.4227 58.7466 93.6421 49.6728 85.9347C48.023 84.6501 46.465 83.2279 44.9985 81.6681C45.9151 80.0165 46.8773 78.3648 47.8855 76.7132C48.4354 75.8874 49.5352 76.1627 49.9477 76.9885C53.6597 73.5477 58.0592 70.795 62.7336 69.694C66.9955 68.5929 71.3949 69.0058 75.3819 70.6574C79.2314 72.309 82.5312 75.3369 84.1809 79.3283C86.2432 84.696 84.8684 90.6142 83.2186 95.9819Z" fill="#CB6D58"/>
<path d="M81.0186 102.588C79.7354 106.258 78.4522 109.929 77.169 113.599L76.8941 114.425L73.5947 124.059C72.4949 124.059 71.3948 124.013 70.2949 123.921C67.5453 123.646 64.7958 123.096 62.1836 122.407C59.434 121.765 56.73 121.031 54.072 120.205C45.2731 117.315 37.0242 113.186 29.3252 107.956C30.4251 106.121 31.5251 104.286 32.625 102.451C36.7494 95.569 40.8739 88.6415 44.9984 81.6681C46.4648 83.2279 48.0228 84.6501 49.6726 85.9347C58.7464 93.6421 69.4701 99.4227 81.0186 102.588Z" fill="white"/>
<path d="M256.309 148.695V182.278H162.271V148.695H256.309Z" fill="#19C5FF"/>
<path d="M193.754 42.1673C191.142 40.9286 188.667 39.8276 185.918 39.0018C184.818 38.7265 183.672 38.4512 182.481 38.1759C181.243 38.0383 180.143 37.7631 179.181 37.0749C177.394 35.5609 177.256 32.9459 179.319 31.7072C181.381 30.4685 184.268 31.5695 186.193 32.3953C188.392 33.2211 190.455 34.4599 192.517 35.6986C193.204 36.1115 193.067 36.9372 192.654 37.4878C193.617 38.3136 194.442 39.277 195.129 40.5157C195.679 41.3415 194.717 42.5802 193.754 42.1673Z" fill="#36174D"/>
<path d="M186.605 46.7092C187.972 46.7092 189.08 45.6001 189.08 44.2318C189.08 42.8636 187.972 41.7545 186.605 41.7545C185.238 41.7545 184.13 42.8636 184.13 44.2318C184.13 45.6001 185.238 46.7092 186.605 46.7092Z" fill="#36174D"/>
<path d="M167.632 44.7823C168.999 44.7823 170.107 43.6732 170.107 42.305C170.107 40.9367 168.999 39.8276 167.632 39.8276C166.266 39.8276 165.158 40.9367 165.158 42.305C165.158 43.6732 166.266 44.7823 167.632 44.7823Z" fill="#36174D"/>
<path d="M172.582 57.8575L187.155 52.7651C187.338 56.9859 184.909 59.7844 179.868 61.1607C176.844 61.9865 174.415 60.8854 172.582 57.8575Z" fill="white"/>
<path d="M161.171 181.865C162.729 181.773 164.241 181.727 165.708 181.727C165.616 181.911 165.479 182.094 165.295 182.278L161.171 181.865Z" fill="#FFBB4D"/>
<path d="M170.52 214.897C170.52 216.365 170.52 217.879 170.52 219.439C170.428 218.062 170.291 216.686 170.107 215.31C170.107 214.209 170.153 213.153 170.245 212.144C170.428 204.62 170.382 197.05 170.107 189.435C170.107 188.609 170.061 187.783 169.97 186.957C170.061 186.774 170.153 186.544 170.245 186.269C170.382 195.628 170.382 205.263 170.52 214.897Z" fill="#FFBB4D"/>
<path d="M256.308 152.824V226.871C256.308 229.073 254.384 231 252.184 231H217.126C217.264 229.624 217.126 228.385 217.126 227.009C217.126 224.439 217.126 221.824 217.126 219.163C217.126 208.612 217.126 198.06 217.126 187.508V183.517C217.126 182.828 216.714 182.278 216.026 182.278C204.753 182.186 193.433 182.094 182.068 182.003C178.769 182.003 175.515 182.003 172.307 182.003C171.207 181.865 170.52 182.14 170.382 182.828C169.97 182.14 169.832 181.865 169.557 181.59C175.148 181.406 180.739 181.269 186.33 181.177C186.514 181.177 186.697 181.085 186.88 180.901C187.43 181.039 188.117 180.626 188.117 179.8C188.117 170.717 188.163 161.633 188.255 152.549C188.255 151.31 188.392 149.934 188.255 148.695H252.184C254.384 148.695 256.308 150.485 256.308 152.824Z" fill="#FFBB4D"/>
<path d="M188.255 148.695C188.392 149.934 188.255 151.31 188.255 152.549C188.163 161.633 188.117 170.717 188.117 179.8C188.117 180.626 187.43 181.039 186.88 180.901C186.697 181.085 186.513 181.177 186.33 181.177C177.898 181.36 169.465 181.59 161.033 181.865C161.583 181.406 161.95 180.81 162.133 180.076C162.225 179.709 162.271 179.342 162.271 178.975V152.824C162.271 150.485 164.195 148.695 166.395 148.695H188.255Z" fill="#36174D"/>
<path d="M170.657 231H132.025C129.825 231 127.9 229.073 127.9 226.871V187.233C127.9 184.893 129.825 183.104 132.025 183.104H158.146C158.971 183.104 159.659 182.92 160.209 182.553C160.85 182.094 162.546 182.002 165.295 182.278C165.479 182.094 165.616 181.911 165.708 181.727C166.991 181.727 168.274 181.681 169.557 181.59C169.832 181.865 170.061 182.186 170.245 182.553C170.382 184.067 170.382 185.03 170.382 186.131C170.245 186.544 170.107 186.682 169.97 186.957C170.061 187.783 170.107 188.609 170.107 189.435C170.382 197.05 170.428 204.62 170.245 212.144C170.153 213.153 170.107 214.209 170.107 215.31C170.291 216.686 170.428 218.062 170.52 219.439C170.52 223.201 170.565 226.963 170.657 230.725C170.657 230.816 170.657 230.908 170.657 231Z" fill="#F66957"/>
<path d="M169.557 181.59C168.274 181.681 166.991 181.727 165.708 181.727C166.12 181.314 166.533 181.039 167.083 180.901C168.045 180.764 168.87 181.039 169.557 181.59Z" fill="#F66957"/>
<path d="M170.382 186.132C170.382 185.122 170.336 184.113 170.245 183.104C170.795 183.792 170.657 185.03 170.382 186.132Z" fill="#F66957"/>
<path d="M217.126 219.164C217.126 221.824 217.126 224.439 217.126 227.009C217.126 228.385 217.264 229.624 217.126 231H170.657C170.52 227.009 170.52 223.155 170.52 219.439C170.52 217.879 170.52 216.365 170.52 214.897C170.428 205.263 170.382 195.674 170.382 186.132C170.382 185.122 170.336 184.113 170.245 183.104C170.52 182.14 171.207 181.865 171.757 182.003C175.607 182.003 178.769 182.003 182.068 182.003C193.433 182.094 204.753 182.186 216.026 182.278C216.714 182.278 217.126 182.828 217.126 183.517V187.508C217.126 198.06 217.126 208.612 217.126 219.164Z" fill="#FFBB4D"/>
<path d="M217.951 183.792C217.584 186.361 217.218 188.976 216.851 191.637C216.714 192.463 215.889 192.876 215.201 192.6C215.018 192.692 200.49 192.738 171.619 192.738C170.519 192.738 170.245 191.362 170.795 190.811C171.253 188.15 171.482 185.489 171.482 182.828C171.482 182.416 171.757 182.003 172.169 181.865C172.353 181.681 172.627 181.544 172.994 181.452C176.202 181.269 179.41 181.131 182.618 181.039C194.029 180.626 205.44 181.177 216.851 182.553C217.401 182.553 217.951 183.104 217.951 183.792Z" fill="#19C5FF"/>
<path d="M128.725 31.1567L109.753 50.15C108.24 51.664 105.903 51.664 104.391 50.15L85.4183 31.1567C84.4559 30.1933 84.1809 28.9545 84.3183 27.8535C87.4804 27.9911 90.9177 27.8535 93.1174 26.6148C95.3171 25.5137 96.4168 23.4492 95.3169 19.5955C95.0419 18.6779 94.6756 17.8521 94.2173 17.1181L104.391 6.79561C105.903 5.41928 108.24 5.41928 109.753 6.79561L128.725 25.789C130.1 27.3029 130.1 29.6427 128.725 31.1567Z" fill="#F66957"/>
<path d="M245.172 141.814C245.08 142.272 245.035 142.685 245.035 143.052C244.072 147.594 238.711 147.87 235.411 145.53C233.349 143.878 230.737 143.328 228.124 144.016C224 145.255 222.488 149.659 219.738 152.411C217.676 154.614 214.376 156.54 211.352 155.439C208.052 154.338 207.09 150.622 208.052 147.594C208.602 145.943 209.564 144.291 210.389 142.777C211.214 141.263 212.177 139.749 213.139 138.235C216.301 133.418 220.426 129.564 226.2 128.188C231.562 127.087 236.923 130.115 240.773 133.556C242.972 135.62 245.172 138.786 245.172 141.814Z" fill="#CB6D58"/>
<path d="M251.634 138.51C251.497 142.502 249.434 145.805 247.647 149.246C247.647 150.347 245.86 152.549 245.31 153.65C244.485 155.21 243.66 156.77 242.835 158.33C241.46 160.945 239.673 163.422 237.336 165.211C234.999 167 231.562 167.689 229.087 165.762C225.237 162.734 227.437 156.265 229.087 152.549C230.737 148.695 232.387 144.842 234.036 140.988C235.274 137.96 236.236 134.106 239.123 132.042C241.735 130.115 245.447 129.289 248.334 131.078C250.672 132.592 251.772 135.62 251.634 138.51Z" fill="#CB6D58"/>
<path d="M261.67 147.181C261.12 149.796 260.02 152.549 258.783 155.027C257.5 157.596 255.988 160.073 254.246 162.459C252.596 164.661 250.672 167.138 248.334 168.927C246.272 170.579 243.248 171.542 240.498 170.304C237.611 169.065 237.198 166.175 237.748 163.56C238.298 160.945 239.673 158.192 240.91 155.715C241.185 155.256 241.46 154.797 241.735 154.338C243.11 150.393 244.714 146.585 246.547 142.915C246.135 142.64 245.86 142.089 245.997 141.263C246.822 138.648 249.297 136.446 252.322 135.895C255.484 135.345 258.783 136.721 260.57 139.061C262.358 141.401 262.357 144.429 261.67 147.181Z" fill="#CB6D58"/>
<path d="M271.019 151.999C271.019 154.614 270.194 157.504 269.094 159.706C266.482 164.385 264.557 170.579 259.058 172.506C257.133 173.332 254.933 173.332 253.146 172.231C249.434 170.304 250.259 166.725 251.084 163.422C252.046 159.568 253.696 155.852 255.896 152.549C257.958 149.659 260.983 145.254 264.832 145.254C266.482 145.254 267.719 145.805 268.819 146.768C270.332 148.145 270.881 149.934 271.019 151.999Z" fill="#CB6D58"/>
<path d="M232.524 144.979C232.524 145.53 231.837 146.218 231.287 146.08C228.537 145.667 226.2 147.457 224.688 149.521C221.663 153.1 219.051 157.917 213.827 157.917C209.152 157.917 205.44 153.65 206.128 148.971C206.265 148.282 206.677 147.869 207.365 147.869C207.915 147.869 208.602 148.42 208.465 149.108C208.19 151.31 209.015 153.512 210.94 154.751C212.452 155.715 214.514 155.852 216.301 155.026C218.088 154.063 219.464 152.411 220.701 150.76C223.313 147.319 226.475 143.052 231.424 143.74C231.974 143.878 232.524 144.291 232.524 144.979Z" fill="white"/>
<path d="M256.308 180.076V182.553H160.208C161.171 182.003 161.858 181.177 162.133 180.076H256.308Z" fill="white"/>
<path d="M189.63 148.695V181.039C189.63 182.553 187.292 182.553 187.292 180.901V148.695H189.63Z" fill="white"/>
<path d="M218.501 182.003V231H216.164V181.865C216.164 180.351 218.501 180.489 218.501 182.003Z" fill="white"/>
<path d="M172.17 182.278V231H169.833V182.14C169.833 180.626 172.17 180.764 172.17 182.278Z" fill="white"/>
<path d="M216.026 194.252H172.169C170.657 194.252 170.794 191.912 172.307 191.912H216.164C217.814 191.912 217.676 194.252 216.026 194.252Z" fill="white"/>
<path d="M76.7567 113.737C75.3819 118.049 74.0071 122.316 72.6323 126.536C67.5912 141.768 61.9547 156.724 55.7222 171.405C55.1723 172.781 52.835 172.093 53.5224 170.717C55.2638 166.588 56.9594 162.413 58.6091 158.192C64.4751 143.328 69.7452 128.28 74.4196 113.048C74.832 111.534 77.1692 112.223 76.7567 113.737Z" fill="white"/>
<path d="M172.994 84.6958C164.883 83.0442 156.634 81.3927 148.248 80.9798C141.098 80.5669 133.95 81.1174 127.075 83.3195C120.751 85.384 114.977 88.6872 109.34 92.4033C97.7919 100.111 87.7556 110.02 75.9322 117.453C74.5574 118.278 73.4573 116.214 74.6946 115.388C81.5687 111.121 87.7556 106.029 94.0797 100.937C104.666 92.4033 115.94 83.7325 129.275 80.2916C143.848 76.4379 159.109 79.4658 173.682 82.4937C175.194 82.769 174.507 85.1087 172.994 84.6958Z" fill="white"/>
<path d="M75.7945 73.9606C75.7945 74.6488 75.1071 75.1993 74.4196 75.0616C74.1447 75.0616 73.8699 75.0616 72.9075 75.0616C72.3576 75.1993 71.8076 75.3369 70.7077 75.6122C70.4327 75.7957 70.2036 75.9333 70.0203 76.0251C69.7453 76.1627 69.4704 76.3004 68.6455 76.8509C68.0955 77.2638 67.5457 77.2638 66.9957 76.7133C66.5833 76.3004 66.5831 75.4745 67.133 75.0616C69.1953 73.41 71.9451 72.5843 74.5573 72.722C75.2447 72.8596 75.7945 73.2724 75.7945 73.9606Z" fill="#AB5A44"/>
<path d="M267.445 157.641C266.07 160.807 265.795 164.386 264.282 167.689C263.045 170.579 260.983 173.194 257.683 174.157C256.171 174.57 255.759 172.231 257.133 171.818C259.883 170.992 261.533 168.377 262.495 165.899C263.732 162.596 264.145 159.018 265.657 155.852C265.795 155.577 266.07 155.439 268.132 154.614C268.269 154.614 268.544 154.751 268.957 155.026C269.048 155.21 269.14 155.393 269.231 155.577C269.231 155.715 269.232 155.852 267.445 157.641Z" fill="#AB5A44"/>
<path d="M212.452 53.4534C212.727 54.0039 212.589 54.8297 211.902 55.1049C210.939 55.5178 209.84 55.9307 208.877 56.4813C209.061 57.6741 209.244 58.821 209.427 59.9221C209.565 60.6103 209.152 61.1608 208.602 61.2984C207.915 61.5737 207.227 61.0232 207.09 60.4727C206.907 59.3716 206.723 58.2247 206.54 57.0318C205.99 57.2153 205.44 57.3989 204.89 57.5824C204.34 57.72 203.653 57.3071 203.516 56.619C203.378 56.0684 203.79 55.3803 204.478 55.2426C205.578 54.9674 206.678 54.5545 208.327 53.8663C208.602 53.7745 208.877 53.6828 209.152 53.591C209.702 53.4075 210.252 53.1781 210.802 52.9028C211.489 52.6276 212.177 52.9029 212.452 53.4534Z" fill="#AB5A44"/>
<path d="M192.792 73.823C188.255 76.5756 182.893 78.0895 177.669 77.8143L177.531 75.4746C182.481 75.6122 187.43 74.3735 191.692 71.6208C193.067 70.9326 194.167 72.9972 192.792 73.823Z" fill="#AB5A44"/>
<path d="M250.672 137.822C246.547 147.181 242.423 156.54 238.298 165.899C238.023 166.45 237.474 166.863 236.786 166.725C236.236 166.45 235.824 165.762 236.099 165.211C240.223 155.852 244.348 146.493 248.472 137.134C248.747 136.446 249.297 136.033 249.984 136.308C250.534 136.446 250.947 137.272 250.672 137.822Z" fill="#AB5A44"/>
<path d="M259.47 146.906C256.812 153.696 254.154 160.486 251.496 167.276C250.947 168.652 248.609 167.964 249.159 166.588C251.817 159.798 254.521 153.008 257.271 146.218C257.821 144.704 260.02 145.53 259.47 146.906Z" fill="#AB5A44"/>
<path d="M168.595 34.3223C170.382 37.3502 172.032 40.791 171.62 44.3695C171.482 46.0211 170.795 47.3974 169.833 48.7738C169.42 49.3243 169.008 49.8748 169.145 50.563C169.145 50.7006 169.145 51.2511 169.42 51.2511C170.932 51.3888 170.795 53.7285 169.283 53.5909C167.633 53.4533 166.67 51.9393 166.67 50.4254C166.67 48.6361 168.045 47.5351 168.733 46.0211C170.52 42.5803 168.183 38.4513 166.533 35.4233C165.845 34.1846 167.908 33.0836 168.595 34.3223Z" fill="#AB5A44"/>
<path d="M89.8172 40.2404C94.0792 46.2963 93.1169 54.279 92.0171 61.2983C91.1922 67.9047 88.855 74.924 83.0808 78.9154C78.1314 82.3562 70.8448 82.3562 66.8578 77.5391C65.8954 76.3004 67.6828 74.6488 68.6451 75.8874C70.4324 78.0896 73.3194 79.053 76.069 78.9154C79.0936 78.9154 81.8435 77.2638 83.9058 75.1993C86.1055 72.8595 87.48 70.1068 88.4424 67.0789C86.6552 65.2897 84.4554 63.7757 82.2557 62.6746C77.9938 60.7478 73.1819 60.0597 68.5075 61.0231C63.9706 61.8489 59.7089 64.1886 56.4094 67.6295C55.447 68.7305 53.7971 66.9413 54.8969 65.8402C56.8217 63.7758 59.2963 61.9865 61.771 60.7478C66.4454 58.408 71.8072 57.5822 76.8941 58.5456C81.431 59.3714 85.6928 61.436 89.1298 64.4639C89.5423 62.2618 89.8175 59.922 90.0925 57.7199C90.23 56.2059 90.3672 54.692 90.5047 53.178C88.3966 51.5264 86.1052 50.2418 83.6305 49.3243C74.1443 45.6082 63.1458 47.2597 55.1718 53.7285C53.9345 54.6919 52.4222 52.9027 53.5221 51.9393C55.9968 50.0124 58.609 48.3608 61.4961 47.2598C70.9824 43.4061 81.9808 44.5071 90.5047 50.15C90.3672 46.2963 89.4048 42.5802 86.3802 39.8276C82.2557 35.8362 75.3818 36.662 70.02 37.0749C64.9331 37.4878 59.0214 38.3136 55.5843 42.5802C55.1719 42.9931 54.4845 43.2684 53.9346 42.8555C53.5222 42.5802 53.2473 41.7544 53.6597 41.2039C58.0591 35.6986 65.6207 35.0104 72.2198 34.5975C75.5194 34.3223 78.8187 34.1846 81.9808 35.0104C85.1429 35.6986 88.03 37.4878 89.8172 40.2404Z" fill="#AB5A44"/>
<path d="M259.196 172.919C257.134 174.433 254.521 174.846 252.322 173.745C250.947 173.056 249.984 171.955 249.434 170.717C247.372 172.368 243.935 172.781 241.598 172.506C239.536 172.368 237.749 171.543 236.511 169.753C236.145 169.203 235.915 168.56 235.824 167.826C233.899 168.927 231.562 168.79 229.774 167.689C227.437 166.312 226.2 163.56 226.062 160.945C225.787 157.642 227.162 154.476 228.262 151.448C230.599 145.117 233.486 139.061 236.374 132.868C236.649 132.317 237.199 131.904 237.886 132.179C238.436 132.317 238.848 133.143 238.573 133.693C237.107 136.721 235.686 139.749 234.311 142.777C233.12 145.438 231.974 148.191 230.874 151.035C229.912 153.65 228.675 156.403 228.4 159.293C228.262 161.495 228.675 163.973 230.599 165.487C231.837 166.45 234.311 166.588 235.411 165.074C235.686 164.798 235.961 164.661 236.374 164.661C237.061 163.422 238.986 164.661 238.298 166.037C237.748 166.863 238.161 168.102 238.848 168.79C239.673 169.891 241.048 170.166 242.285 170.304C244.348 170.304 247.922 170.029 248.609 167.689C249.022 166.45 250.672 166.725 251.359 169.203C251.359 169.478 251.634 170.029 251.772 170.166C252.184 170.717 252.734 171.267 253.421 171.543C253.421 171.543 253.834 171.68 256.583 171.68C256.858 171.68 256.996 171.543 257.546 171.267C258.096 170.854 258.783 170.854 259.196 171.267C259.608 171.68 259.746 172.644 259.196 172.919Z" fill="white"/>
<path d="M166.945 35.8362C162.683 35.2856 157.871 33.7717 154.022 36.2491C153.059 36.9373 151.684 35.5609 152.371 34.5975C152.646 34.3222 152.968 34.0011 153.334 33.6341C152.922 33.2212 152.922 32.2577 153.609 31.8448C156.359 30.4685 159.383 29.0921 162.408 29.6427C165.157 30.0556 167.495 31.7072 168.182 34.3222C168.457 35.0104 167.77 35.8362 166.945 35.8362Z" fill="#36174D"/>
<path d="M97.3788 22.8988C96.9663 25.5138 95.3168 27.4406 92.8421 28.2664C90.5049 28.9546 87.8926 28.817 85.4179 28.6794C82.3933 28.4041 79.3689 28.083 76.3443 27.7159C74.832 27.4407 74.9693 25.1009 76.4816 25.2386C79.0479 25.6056 81.66 25.9267 84.318 26.2019C86.5177 26.3396 88.7175 26.6148 90.9172 26.2019C92.8419 25.9267 94.4917 24.9632 95.0417 23.0364C95.4541 20.8342 94.4917 18.7697 93.2543 17.2558C92.2919 16.0171 94.0793 14.3655 95.0417 15.6042C96.6914 17.6687 97.7912 20.2838 97.3788 22.8988Z" fill="white"/>
<path d="M132.575 6.24509C131.475 7.34615 129.688 7.48385 128.45 6.65806C127.076 5.69462 126.251 4.04296 126.801 2.1161C127.167 1.38205 127.717 0.83159 128.45 0.464568C129.138 0.0516691 129.963 -0.0860312 130.65 0.0516019C132.163 0.189235 133.4 1.0151 133.675 2.52906C134.087 3.90539 133.537 5.41929 132.575 6.24509Z" fill="white"/>
<path fill-rule="evenodd" clip-rule="evenodd" d="M140.274 57.4447C138.258 61.2066 135.92 64.7851 133.262 68.18C132.712 68.8682 131.612 68.8682 131.2 68.0424C129.367 64.1887 127.534 60.3349 125.701 56.4812C125.426 55.9307 125.563 55.3802 125.976 55.1049C126.113 54.5544 126.663 54.0038 127.213 54.0038C131.246 54.5544 135.278 55.1049 139.311 55.6555C140.274 55.7931 140.686 56.6189 140.274 57.4447ZM132.437 65.1522C134.27 62.8583 135.92 60.3809 137.387 57.72C134.362 57.3529 131.383 56.9859 128.45 56.6189C129.825 59.4633 131.154 62.3078 132.437 65.1522Z" fill="#FFBB4D"/>
<path d="M271.569 72.7219C267.719 72.9054 263.87 73.043 260.02 73.1348C259.195 73.2724 258.646 72.0337 259.196 71.3456C261.12 68.6846 262.999 65.9778 264.832 63.2252C265.382 62.537 266.207 62.6746 266.619 62.9499C267.032 62.9499 267.444 63.2252 267.719 63.6381C269.369 66.1154 271.019 68.5929 272.669 71.0703C273.218 71.8961 272.394 72.7219 271.569 72.7219Z" fill="#19C5FF"/>
<path d="M260.295 46.2963C259.837 48.0396 259.333 49.7371 258.783 51.3887C258.645 52.0769 257.958 52.3521 257.271 52.2145C256.721 51.9392 256.308 51.2511 256.583 50.7006L257.958 45.6081C258.233 44.92 258.92 44.6446 259.47 44.7823C260.158 44.9199 260.433 45.7458 260.295 46.2963Z" fill="#F66957"/>
<path d="M266.482 53.8661C266.482 54.0037 266.207 54.4166 265.932 54.5542C264.924 54.9213 263.916 55.2883 262.907 55.6553C262.77 55.7929 262.495 55.7929 262.082 55.7929C261.67 55.6553 261.532 55.5177 261.395 55.2424C261.257 54.9671 261.12 54.5542 261.258 54.279C261.395 54.0037 261.533 53.7284 261.807 53.5908C262.816 53.2238 263.824 52.8108 264.832 52.3521C265.107 52.2144 265.244 52.2144 265.794 52.3521C266.069 52.3521 266.344 52.6274 266.482 52.9026C266.619 53.1779 266.619 53.5908 266.482 53.8661Z" fill="#F66957"/>
<path d="M114.427 200.721C113.465 201.959 111.678 202.235 110.303 201.546C108.928 200.858 107.828 199.482 108.103 196.729C108.79 195.215 110.303 194.252 111.953 194.252C112.64 194.389 113.465 194.527 114.015 194.94C114.656 195.399 115.115 196.041 115.39 196.867C115.802 198.243 115.39 199.757 114.427 200.721Z" fill="#F66957"/>
<path d="M107.003 37.4879C111.938 37.4879 115.939 33.4826 115.939 28.5417C115.939 23.6009 111.938 19.5956 107.003 19.5956C102.067 19.5956 98.0664 23.6009 98.0664 28.5417C98.0664 33.4826 102.067 37.4879 107.003 37.4879Z" fill="white"/>
</svg>
