<?xml version="1.0" encoding="UTF-8"?>
<svg id="Ebene_1" data-name="Ebene 1" xmlns="http://www.w3.org/2000/svg" viewBox="0 0 232 267">
  <defs>
    <style>
      .cls-1, .cls-2 {
        fill: #fff;
      }

      .cls-2 {
        fill-rule: evenodd;
      }

      .cls-3 {
        fill: #19c5ff;
      }

      .cls-4 {
        fill: #dadef1;
      }

      .cls-5 {
        fill: #ffa895;
      }

      .cls-6 {
        fill: #f76d6d;
      }

      .cls-7 {
        fill: #36174d;
      }

      .cls-8 {
        fill: #ffbb4d;
      }

      .cls-9 {
        fill: #f66957;
      }
    </style>
  </defs>
  <path class="cls-4" d="M109.8,21.85c60.76,0,109.93,49.13,109.93,109.69,0,29.88-11.99,56.93-31.25,76.72-19.94,20.32-47.83,33.11-78.68,33.11-17.51,0-34.08-4.17-48.77-11.44C24.79,211.89,0,174.61,0,131.54,0,70.97,49.17,21.85,109.8,21.85Z"/>
  <path class="cls-1" d="M38.53,95.33c9.83,22.75,36.24,33.11,59.01,23.28,22.77-9.82,33.14-36.2,23.31-58.82-.27-.81-.63-1.62-1.08-2.42,13.56-6.82,20.43-10,20.61-9.56,.27,.4,.4,.81,.81,1.48,.18,.45,.36,.94,.54,1.48,.54,.94,.94,2.02,1.35,3.23,.13,.4,.4,.94,.67,1.75,.18,.45,.31,.9,.4,1.35,.14,.54,.27,.94,.54,1.75,.09,.45,.22,.85,.4,1.21,2.56,9.83,2.83,19.78,1.08,29.34-.09,.54-.18,1.08-.27,1.62-.09,.54-.22,1.08-.4,1.62-.09,.54-.18,1.08-.27,1.62-.18,.45-.32,.9-.4,1.35-.36,1.17-.72,2.33-1.08,3.5-.09,.36-.22,.72-.4,1.08-.54,1.44-1.12,2.87-1.75,4.31-.09,.27-.23,.54-.4,.81-.18,.54-.4,1.08-.67,1.62-.54,.99-1.08,1.97-1.62,2.96-.27,.54-.54,1.03-.81,1.48-5.66,9.83-13.88,18.17-24.11,24.09-.9,.54-1.75,1.03-2.56,1.48-.54,.27-1.08,.54-1.62,.81-.45,.27-.94,.49-1.48,.67-.54,.27-1.08,.49-1.62,.67-.54,.27-1.08,.49-1.62,.67-.54,.27-1.08,.49-1.62,.67-.45,.18-.94,.36-1.48,.54-32.87,11.31-69.79-4.58-83.8-36.88l20.34-8.75Z"/>
  <path class="cls-7" d="M53.35,15.66c32.87-14.13,70.86-.13,86.76,31.49l-20.34,10.23c-10.51-21-35.84-30.42-57.79-21-11.32,4.98-19.53,13.86-23.85,24.5l-20.75-8.21c6.47-16.02,18.86-29.61,35.97-37.01Z"/>
  <path class="cls-9" d="M53.35,5.56c32.87-14.27,70.86-.13,86.76,31.49l-20.34,10.23c-10.51-21.13-35.84-30.42-57.79-21-11.32,4.85-19.53,13.86-23.85,24.5l-20.75-8.21C23.85,26.56,36.24,12.96,53.35,5.56Z"/>
  <path class="cls-3" d="M15.76,57.51c.27-1.08,.63-2.15,1.08-3.23,.18-.54,.36-1.08,.54-1.62l20.75,8.21c-4.31,10.63-4.45,23.01,.4,34.46l-20.34,8.75c-6.6-15.34-7.01-31.76-2.43-46.57Z"/>
  <path class="cls-7" d="M58.6,154.82c-14.82-26.11-16.57-62.72-14.01-84.39,4.45-37.15,60.35-29.07,75.31-7,14.82,21.94,17.78,23.28,45.8,14,30.85-10.23,57.53,7.81,63.32,44.01,7.54,47.78-33.41,77.12-67.09,81.02-71.27,8.07-88.38-21.67-103.33-47.65Z"/>
  <path class="cls-7" d="M103.87,61.96l11.72,6.73c3.5,2.15,7.01,4.17,10.64,6.06,3.5,1.75,7.14,3.36,10.91,4.17,3.91,.94,7.95,.94,11.85,.13,4.18-.81,7.95-2.56,11.99-3.9,4.04-1.35,8.08-2.56,12.26-3.5,7.95-1.75,16.3-2.29,24.25-.81,7.14,1.35,14.15,4.31,19.8,9.02,5.39,4.44,9.3,10.23,11.59,16.69,2.29,6.59,3.23,13.46,3.1,20.46-.27,6.6-1.48,13.19-3.77,19.52-2.29,6.06-5.66,11.71-10.1,16.55-4.18,4.58-9.43,8.21-15.49,9.96-1.44,.45-2.92,.76-4.45,.94-1.21,.13-1.48-1.75-.27-1.88,6.06-.67,11.59-3.5,16.17-7.54,4.58-4.04,8.22-9.42,10.91-15.07,2.69-5.79,4.31-12.11,4.85-18.44,.67-6.86,.27-13.73-1.48-20.32-1.75-6.33-4.98-12.38-9.57-17.23-4.99-5.11-11.59-8.34-18.46-10.23-7.68-1.88-15.76-1.75-23.44-.54-4.18,.81-8.22,1.75-12.12,3.1-4.04,1.21-7.81,2.83-11.85,4.04-3.77,1.21-7.81,1.88-11.86,1.48-3.77-.27-7.41-1.35-10.91-2.83-3.64-1.48-7.14-3.36-10.64-5.38-3.64-2.15-7.28-4.31-11.05-6.46-1.89-1.08-3.73-2.15-5.52-3.23-1.08-.54,0-2.02,.94-1.48Z"/>
  <path class="cls-8" d="M22.77,144.46c2.02-2.29,5.52-5.65,9.83-9.15,4.85,2.69,21.96,10.77,46.07,9.82,24.12-1.08,28.96-17.63,26.41-31.9-1.62-8.48-6.6-15.07-10.51-19.11,6.74-1.62,14.01-2.83,20.07-2.69,7.41,.27,15.49,2.56,23.31,5.79,11.32,4.71,22.5,11.31,31.12,16.02,.54,.27,1.08,.54,1.62,.81,14.95,7.67,42.57,15.88,31.52,43.2-8.08,19.92-27.08,14.13-37.59,9.02-2.02-1.08-3.77-2.02-5.12-2.83-.99-.54-1.75-1.03-2.29-1.48l-4.45,.67c-3.1-3.36-7.01-7.27-11.18-10.9-.18-.18-.36-.36-.54-.54-10.1-8.21-23.17-4.98-25.06-.27-2.02,4.71-6.33,23.28-9.43,27.73-2.07,2.87-10.15,8.35-24.25,16.42l24.52,32.84c-13.61,13.59-28.96,28.26-37.86,34.05-17.92,11.44-41.9,1.48-44.32-10.63-2.56-12.11-8.62-49.66-9.03-69.99-.27-20.19,.27-28.67,7.14-36.88Z"/>
  <path class="cls-5" d="M90.13,72.99c4.4,2.69,7.41,5.61,9.03,8.75-.36,4.04-.27,7.13,.27,9.29,.81,3.36,3.91,11.84-.27,16.96-4.04,5.25-10.1,8.48-18.19,7.94-11.05-.67-14.95-3.5-18.19-8.88-1.26-2.15-1.89-5.74-1.89-10.77,5.84,.63,11.45-2.42,16.84-9.15,4.49-5.56,8.62-10.27,12.39-14.13Z"/>
  <path class="cls-5" d="M61.16,91.7c3.77,.67,6.2,4.31,5.52,7.94-.67,3.77-4.31,6.19-8.08,5.52-3.64-.67-6.06-4.31-5.39-7.94,.67-3.77,4.18-6.19,7.95-5.52Z"/>
  <path class="cls-8" d="M61.16,194.93c.36-.72,.76-1.44,1.21-2.15,2.29-3.63,5.25-7.13,8.22-10.23,3.5-3.77,7.41-7,11.32-10.23,7.95-6.33,16.3-12.11,24.25-18.44,3.91-3.23,7.81-6.73,11.32-10.36,2.6-2.87,5.07-5.92,7.41-9.15,.99-1.35,1.93-2.69,2.83-4.04,1.26-1.97,2.43-3.95,3.5-5.92-.81-.63-1.66-1.26-2.56-1.88-1.08-.54,.14-2.02,1.08-1.35,.81,.54,1.62,1.12,2.43,1.75,.67-.4,1.75,.13,1.35,1.08,5.39,4.44,9.57,10.36,12.26,16.82,3.37,7.94,4.45,16.82,3.1,25.3-.81,4.31-2.15,8.61-4.31,12.38-.18,.36-.36,.72-.54,1.08-2.29,4.17-5.12,8.21-7.01,12.79-.94,2.56-1.35,4.98-1.48,7.67s-.13,5.38-.94,7.94c-.81,2.56-2.56,4.58-4.72,6.06-1.89,1.48-4.04,2.69-6.2,3.9-4.04,2.02-8.22,3.63-12.53,4.71-4.85,1.21-9.83,1.88-14.82,1.88-9.43,.13-19-1.75-27.48-5.92-2.16-.99-4.22-2.11-6.2-3.37-.99-.63-1.98-1.3-2.96-2.02-.45-.36-.9-.72-1.35-1.08-.27-.13-.54-.27-.67-.54-.27-.4-.27-.81-.27-1.21-.67-5.38,1.08-10.9,3.77-15.48Z"/>
  <path class="cls-5" d="M37.18,130.73c2.02-1.88,4.04-3.77,6.06-5.52,7.01-6.06,13.2-11.57,14.95-13.59,2.51-2.87,4-7.99,4.45-15.34l10.37,4.31c6.65-2.51,13.83-4.67,21.56-6.46,3.64,3.77,8.22,9.69,10.1,17.23,.09,.63,.22,1.26,.4,1.88,.4,2.83,.67,5.79,.54,8.75-.67,11.57-7.68,22.34-26.94,23.15-3.77,.09-7.36,.04-10.78-.13-5.52-.4-10.64-1.21-15.09-2.29-10.24-2.29-17.38-5.79-20.48-7.54,1.53-1.44,3.14-2.92,4.85-4.44Z"/>
  <path class="cls-9" d="M43.24,125.21c5.12,2.69,9.83,5.79,14.28,9.42,3.77,3.1,7.28,6.6,10.37,10.36,2.6,2.96,4.94,6.1,7.01,9.42,2.25,3.41,4.18,7,5.79,10.77,5.52-3.36,10.78-6.86,15.63-10.9,4.76-3.95,9.12-8.25,13.07-12.92,1.98-2.24,3.82-4.58,5.52-7-2.69-4.44-5.79-8.61-9.3-12.38-2.69-2.87-5.52-5.56-8.49-8.08-.36-.27-.72-.54-1.08-.81-.45-.45-.94-.85-1.48-1.21,1.08-.81,2.07-1.75,2.96-2.83,.63-.81,1.17-1.66,1.62-2.56,.45,.45,.94,.85,1.48,1.21,1.35,1.17,2.69,2.38,4.04,3.63,.63,.63,1.3,1.26,2.02,1.88,4.76,4.67,9.25,9.65,13.47,14.94,1.62,2.06,3.19,4.13,4.72,6.19,2.42,3.41,4.67,6.86,6.74,10.36,.36,.72,.76,1.44,1.21,2.15,.27,.4,.27,.81,0,1.21,4.58,10.1,9.03,20.46,11.18,31.49-.81,1.44-1.62,2.83-2.43,4.17-.45,.72-.85,1.44-1.21,2.15-1.21,2.69-3.1,5.25-3.91,8.21-.67,3.63-.81,7.4-.54,11.04,0,1.26,.04,2.51,.13,3.77,.18,.99,.31,2.06,.4,3.23,.18,1.08,.27,2.2,.27,3.36,0,.81,.13,1.75,.13,2.56,0,.94,0,1.75-.13,2.69,.13,1.61-1.35,3.5-2.83,3.5-8.22,.81-21.56,4.85-26.14-4.44-.36-.9-.72-1.88-1.08-2.96-1.21-4.17-2.56-9.15-6.06-12.11-.99-.9-1.98-1.84-2.96-2.83-2.16-1.88-4.18-3.77-6.6-5.25-2.16-1.35-4.45-2.29-6.87-2.69-.13,.4-.4,.54-.81,.67-.27,0-.54,.13-1.35,.27-.45,.09-.9,.22-1.35,.4-.27,.13-.4,.13-.94,0-5.25,2.29-10.24,5.52-14.42,9.56-.4,.27-.81,.13-1.35,.13-.81,.54-1.62-.27-1.35-1.08,.09-.27,.18-.54,.27-.81v-2.96c-.27-1.08-.4-2.29-.54-3.77,0-1.21-.13-2.42,0-3.9-.54-1.21,0-2.56-.54-3.9-.27-.54-.27-1.08,0-1.61,.27-.4-.4-.4-.27-.81,.54-.81,1.03-1.62,1.48-2.42,.9-1.53,1.84-3.05,2.83-4.58,1.98-3.05,4.04-6.01,6.2-8.88-.27-1.08-.81-2.02-1.21-2.83-1.17-2.42-2.43-4.76-3.77-7-4.04-6.46-8.76-12.52-14.28-17.77-2.25-2.15-4.63-4.22-7.14-6.19-2.69-2.15-5.52-4.08-8.49-5.79,2.02-1.88,4.04-3.77,6.06-5.52Z"/>
  <path class="cls-5" d="M106.56,178.65c3.1-4.44,7.41-23.01,9.43-27.73,1.89-4.71,14.95-7.94,25.06,.27,.18,.18,.36,.36,.54,.54,4.18,3.63,8.08,7.54,11.18,10.9l-6.2,.81c-6.56-3.59-8.22-3.46-4.98,.4,4.85,5.92-5.39,31.36-8.08,35.4-1.48,2.02-13.07,14.94-26.67,28.67l-24.52-32.84c14.1-8.07,22.18-13.55,24.25-16.42Z"/>
  <path class="cls-6" d="M56.72,96.68c.4-.4,.81-.54,1.35-.27,1.71,1.08,3.32,2.24,4.85,3.5,.4,.4,.54,.94,.13,1.35-.27,.4-.81,.54-1.21,.13-1.53-1.35-3.19-2.51-4.98-3.5-.4-.27-.4-.94-.13-1.21Z"/>
  <path class="cls-5" d="M114.51,101.39c1.08-1.35,2.96-2.02,4.58-1.75,2.07,.27,3.82,1.08,5.25,2.42,1.48,1.48,2.96,3.9,4.98,4.71,1.62,.67,3.5,.4,4.45-1.08,.09-.18,.27-.31,.54-.4,1.21-1.62,2.02-3.77,2.69-5.65,.27-.81,.58-1.62,.94-2.42,1.44-4.22,2.74-8.43,3.91-12.65,.67-2.29,1.08-4.44,2.43-6.46,1.08-1.62,2.69-2.83,4.71-2.96,1.89-.13,3.77,.67,4.58,2.42,.94,2.29-.13,4.71-.81,6.86-1.35,4.22-2.74,8.43-4.18,12.65,5.66,1.08,11.32,2.56,15.9,6.33,2.16,1.75,4.04,4.04,5.12,6.6,.54,1.35,.9,2.69,1.08,4.04,.13,1.75,0,3.63-.4,5.38-.81,2.56-2.02,4.85-3.1,7.27,.81,.81,5.97,2.78,15.49,5.92,4.22,6.01,3.28,14.04-2.83,24.09-5.12,8.61-14.28,9.56-15.22,9.56-2.02-1.08-3.77-2.02-5.12-2.83-.99-.81-1.93-1.66-2.83-2.56-16.03-14.13-26.27-22.21-32.2-43.2-1.35-4.98-5.12-8.21-5.12-8.35-1.21-1.35-3.23-2.69-4.31-4.17-1.08-1.48-1.89-2.29-.54-3.77Z"/>
  <path class="cls-9" d="M62.65,187.66c.94,6.46,.94,11.98,.27,18.44-.13,1.21-1.89,.94-1.75-.27,.67-6.19,.54-11.71-.27-18.03-.13-1.08,1.62-1.35,1.75-.14Z"/>
  <path class="cls-7" d="M72.88,87.93c2.02-1.35,4.45-2.02,6.87-2.42,1.08-.27,7.14-.81,4.58,2.15-.81,.94-2.43,.54-3.37,.67-2.56,0-5.12,.54-7.54,1.21-.4,.13-.94-.13-1.08-.54-.13-.4,.13-.81,.54-1.08Z"/>
  <path class="cls-6" d="M90.67,96.14c-.13-1.35-.13-2.69,0-4.04,.13-1.48,.27-2.96,1.21-4.04,.67-.94,2.16,.13,1.48,1.08-.94,1.08-.94,2.56-.94,3.9s-.13,2.69,.4,4.04c.18,.54,.49,1.08,.94,1.62,.54,.54,1.08,.94,1.21,1.75,.27,1.35-.54,2.69-1.62,3.5-.94,.67-2.16-.67-1.21-1.35,.54-.4,.94-.81,1.08-1.48,.13-.54-.4-.94-.81-1.35-.94-.94-1.48-2.29-1.75-3.63Z"/>
  <path class="cls-7" d="M93.36,82.82c1.62-1.21,3.64-1.88,5.79-1.75,1.75-.13,1.89,1.75,.81,1.88-1.48,.13-2.96,.67-4.18,1.48-.63,.45-1.17,.94-1.62,1.48-.54,.67-.94,1.48-1.62,2.15-.4,.4-.94,.54-1.35,0-1.48-1.75,.67-4.17,2.16-5.25Z"/>
  <path class="cls-6" d="M81.37,103.28c.4-.27,.94-.27,1.21,.13,.18,.18,.31,.36,.4,.54,.54,.54,.81,.67,.94,.81,1.35,.4,1.48,.54,1.75,.54,1.62-.27,2.16-.13,2.29,.4,.13,.4,0,.94-.54,1.08-2.29,.67-4.98-.14-6.33-2.29-.13-.4-.13-.94,.27-1.21Z"/>
  <path class="cls-6" d="M144.55,106.64c.54-1.08,2.16-.4,1.75,.67-.94,1.89-2.02,4.17-1.75,6.33,.27,2.02,1.89,3.36,3.64,4.17,2.16,1.08,4.31,2.02,6.47,2.83,2.29,.81,4.58,1.48,7.01,1.61,2.69,.27,5.25-.4,7.41-2.02,.94-.67,2.02,.81,1.08,1.48-4.45,3.5-10.37,2.56-15.36,.81-2.43-.81-4.85-1.88-7.14-2.96-2.15-1.08-4.04-2.42-4.71-4.85-.67-2.69,.4-5.65,1.62-8.08Z"/>
  <path class="cls-6" d="M158.3,121.58c2.42-2.02,3.91-4.85,4.71-7.94,.45-1.61,.76-3.23,.94-4.85,.09-.9,.14-1.75,.14-2.56v-1.21c-.27-.54-.54-.81-.67-1.08-.13-.4,.14-1.08,.54-1.21,2.29-.54,2.02,2.69,1.89,4.17-.09,2.06-.36,4.08-.81,6.06-.54,2.02-1.08,4.04-2.02,5.79-.99,1.61-2.2,3.05-3.64,4.31-.94,.67-2.02-.67-1.08-1.48Z"/>
  <path class="cls-6" d="M150.35,118.21c1.08-.81,1.89-2.02,2.42-3.36,.67-1.48,1.21-3.1,1.62-4.71,1.08-3.36,1.62-6.86,1.08-10.36-.13-1.21,1.62-1.35,1.89-.27,.54,3.9-.13,7.67-1.21,11.31-.54,1.75-1.08,3.36-1.89,5.11-.67,1.35-1.48,2.83-2.83,3.77-1.08,.54-2.16-.81-1.08-1.48Z"/>
  <path class="cls-3" d="M112.76,192.64l10.64-57.07c.67-3.63,4.18-6.6,7.81-6.6h27.48c3.64,0,6.06,2.96,5.39,6.6l-10.64,57.07c-.81,3.63-4.31,6.46-7.95,6.46h-27.48c-3.64,0-5.93-2.83-5.25-6.46Z"/>
  <path class="cls-1" d="M147.79,149.04l2.02-10.23c.4-2.29,2.56-4.17,4.85-4.17h1.08c2.29,0,3.77,1.88,3.37,4.17l-2.02,10.23c-.4,2.29-2.56,4.17-4.85,4.17h-1.08c-2.29,0-3.77-1.88-3.37-4.17Z"/>
  <path class="cls-7" d="M154.25,142.98c1.79,0,3.23-1.39,3.23-3.1s-1.45-3.1-3.23-3.1-3.23,1.39-3.23,3.1,1.45,3.1,3.23,3.1Z"/>
  <path class="cls-7" d="M152.64,151.05c1.79,0,3.23-1.39,3.23-3.1s-1.45-3.1-3.23-3.1-3.23,1.39-3.23,3.1,1.45,3.1,3.23,3.1Z"/>
  <path class="cls-5" d="M113.97,157.24c1.08-1.88,2.69-3.23,4.58-3.9,.94-.4,2.02-.54,2.96-.4,.27-.13,.54-.27,.81-.13l15.76,7.54c2.29,1.08,4.71,2.02,6.47,3.9,1.62,1.61,2.56,4.31,1.62,6.46-.54,1.35-1.75,2.29-3.1,2.42,.4,.94,.54,2.02,.27,3.1-.54,1.88-2.15,3.23-4.04,3.36-2.16,0-4.18-1.21-6.06-2.02-2.07-.99-4.09-1.97-6.06-2.96-1.98-1.08-3.95-2.2-5.93-3.36-1.75-1.08-3.64-2.02-5.12-3.5-1.48-1.21-2.56-2.96-2.96-4.98-.4-1.89-.14-3.9,.81-5.52Z"/>
  <path class="cls-5" d="M113.03,169.63c.27-1.21,.94-2.29,2.02-2.83,.27-.18,.58-.31,.94-.4-.27-.67,.54-1.48,1.08-.94,4.04,3.23,8.04,6.46,11.99,9.69,1.75,1.48,3.77,2.83,5.12,4.71,1.21,1.62,1.89,3.77,1.21,5.65-.81,2.15-3.23,2.96-5.25,2.56-2.16-.4-4.04-1.88-5.66-3.23-1.89-1.48-3.91-2.96-5.79-4.58-1.48-1.21-2.96-2.56-4.04-4.17-1.35-1.88-2.16-4.17-1.62-6.46Z"/>
  <path class="cls-5" d="M108.45,182.15c.27-1.53,.67-3.01,1.21-4.44,.4-1.08,.81-2.29,1.62-3.23,.94-1.08,2.29-1.75,3.77-1.62,1.35,.13,2.56,.81,3.5,1.75,.36,.36,.67,.72,.94,1.08,.27,0,.54,.13,.67,.54,.27,.81,.54,1.66,.81,2.56,.41,1.35,.94,2.69,1.62,3.9,.27,.4,.27,.94-.27,1.35,.09,.36,.18,.76,.27,1.21,.67,2.96,1.48,6.06,1.35,9.15,0,2.56-.81,5.12-2.69,7-1.62,1.75-4.04,2.56-6.6,2.02-2.29-.67-4.31-2.29-5.52-4.44-1.35-2.42-1.75-5.25-1.75-8.07,.13-2.96,.4-5.92,1.08-8.75Z"/>
  <path class="cls-5" d="M115.99,150.65c.27-.54,.67-.99,1.21-1.35,3.1-2.29,7.54-2.42,11.18-2.83l10.24-1.08c2.43-.27,5.39-.81,7.68,.4,1.08,.54,1.89,1.62,2.02,2.83,.13,1.35-.27,2.56-.94,3.63-1.75,2.29-4.85,2.83-7.54,3.23-3.32,.54-6.65,.94-9.97,1.21-1.71,.18-3.37,.31-4.98,.4-1.48,0-2.83,.13-4.18,0-1.08-.13-2.02-.4-2.96-.81-2.43-1.61-2.83-3.9-1.75-5.65Z"/>
  <path class="cls-6" d="M113.57,175.82c.27-.4,.94-.54,1.35-.13,2.69,2.51,5.43,5.02,8.22,7.54,.27,.27,.4,.81,.13,1.21-.27,.4-.94,.54-1.35,.13-2.69-2.51-5.43-5.02-8.22-7.54-.27-.27-.4-.81-.14-1.21Z"/>
  <path class="cls-6" d="M121.52,159.8c.4-.4,.94-.4,1.35-.13,6.92,4.4,13.83,8.75,20.75,13.06,.4,.27,.4,.94,.14,1.21-.27,.54-.81,.54-1.21,.27-6.92-4.4-13.83-8.75-20.75-13.05-.4-.27-.54-.94-.27-1.35Z"/>
  <path class="cls-6" d="M119.36,167.47c4.04,2.78,8.08,5.61,12.12,8.48,.94,.54-.13,2.02-1.08,1.35-4.04-2.78-8.08-5.56-12.12-8.34-.94-.67,.14-2.15,1.08-1.48Z"/>
  <path class="cls-6" d="M124.35,152.26c3.41,1.71,6.78,3.41,10.1,5.12,1.71,.81,3.41,1.66,5.12,2.56,1.48,.67,3.1,1.35,4.45,2.29,1.35,.81,2.42,2.02,2.83,3.63,.13,1.08-1.62,1.35-1.89,.14-.27-1.48-1.89-2.42-3.1-2.96-1.98-.99-3.95-1.97-5.93-2.96-4.13-2.06-8.22-4.08-12.26-6.06-1.08-.54-.4-2.29,.67-1.75Z"/>
  <path class="cls-1" d="M87.7,94.8c.54-.54,1.17-.94,1.89-1.21,.72-.27,1.48-.4,2.29-.4,.4,.13,.81,.67,.67,1.08,0,.54-.4,.81-.94,.81-2.69,1.08-2.83,1.21-3.1,1.21-.13,0-.4,0-.67-.13-.13-.27-.27-.4-.27-.67s0-.54,.13-.67Z"/>
  <path class="cls-1" d="M167.19,126.56c.13-.4,.67-.54,1.21-.4,6.92,2.15,13.79,4.67,20.61,7.54,1.89,.81,3.77,1.66,5.66,2.56,1.08,.54,.4,2.15-.67,1.62-6.65-3.05-13.47-5.74-20.48-8.08-1.98-.72-3.95-1.39-5.93-2.02-.4-.13-.67-.81-.4-1.21Z"/>
  <path class="cls-6" d="M66.55,110.41c.27-.4,.81-.67,1.21-.54,4.98,2.69,10.37,4.98,16.17,4.98,3.77,.14,7.54-.81,10.64-2.96,1.08-.81,2.07-1.75,2.96-2.83,.63-.81,1.17-1.66,1.62-2.56,.72-1.44,1.12-3.01,1.21-4.71,0-.54,.54-.81,.94-.81,.54,.13,.81,.54,.81,1.08,0,2.02-.67,3.9-1.48,5.65-1.08,2.15-2.69,3.9-4.58,5.38-.72,.54-1.48,.99-2.29,1.35-2.56,1.35-5.39,2.02-8.22,2.15-.54,2.33-1.35,4.53-2.43,6.6-.27,.4-.67,.67-1.21,.4-.4-.14-.67-.67-.4-1.21,.9-1.79,1.66-3.68,2.29-5.65-2.42-.14-4.72-.54-7.01-1.08-3.37-.94-6.6-2.42-9.7-4.04-.4-.27-.67-.67-.54-1.21Z"/>
  <path class="cls-3" d="M101.04,83.49c4.71,.67,7.95,4.85,7.41,9.56-.54,4.71-4.85,7.94-9.57,7.4-4.58-.54-7.95-4.85-7.41-9.56,.67-4.58,4.98-7.94,9.56-7.4Z"/>
  <path class="cls-2" d="M98.88,101.12c-2.56-.27-4.72-1.48-6.2-3.5-1.48-1.88-2.16-4.31-1.89-6.86,.67-4.98,5.25-8.61,10.37-7.94,2.42,.27,4.58,1.48,6.2,3.5,1.48,2.02,2.15,4.44,1.75,6.86-.27,2.42-1.48,4.58-3.5,6.19-1.62,1.21-3.5,1.88-5.66,1.88-.36,0-.72-.04-1.08-.13Zm-6.6-10.09c-.54,4.17,2.43,8.08,6.74,8.61,2.02,.27,4.04-.27,5.79-1.48,1.62-1.35,2.7-3.1,2.83-5.25,.27-2.02-.27-4.04-1.48-5.65-1.35-1.62-3.1-2.69-5.25-2.96-.27-.09-.58-.13-.94-.13-3.77,0-7.14,2.96-7.68,6.86Z"/>
  <path class="cls-3" d="M81.1,88.33c4.72,.54,7.95,4.85,7.41,9.42-.67,4.71-4.85,8.08-9.56,7.4-4.72-.54-7.95-4.84-7.41-9.56,.67-4.58,4.85-7.94,9.56-7.27Z"/>
  <path class="cls-2" d="M78.81,105.97c-4.98-.67-8.62-5.38-7.95-10.36,.54-5.11,5.25-8.75,10.37-8.08,4.98,.67,8.62,5.25,7.95,10.36-.54,4.71-4.58,8.08-9.16,8.08h-1.21Zm-6.47-10.23c-.54,4.31,2.42,8.21,6.74,8.75,4.18,.54,8.08-2.56,8.62-6.73,.54-4.31-2.42-8.21-6.74-8.75h-.94c-3.91,0-7.28,2.83-7.68,6.73Z"/>
  <path class="cls-7" d="M78.27,97.08c.13-.4,.27-.81,.4-1.08,.18-.18,.31-.36,.4-.54,.94-.4,1.21-.27,1.35-.13,.54,1.08,.67,1.48,.54,2.02,0,.27-.09,.54-.27,.81-2.02,.27-2.16,.13-2.29-.13-.13-.54-.13-.81-.13-.94Z"/>
  <path class="cls-7" d="M92.42,92.91c.13-.67,.27-.94,.54-1.21,.27-.36,.58-.49,.94-.4,.27,0,.54,.13,.67,.54,.09,.18,.13,.36,.13,.54-.81,2.15-1.08,2.29-1.48,2.15-.27,0-.54-.27-.67-.54-.09-.27-.13-.58-.13-.94v-.13Z"/>
  <path class="cls-1" d="M42.71,72.18c.54-.54,1.21-1.21,1.89-1.48-.54,13.06-.4,19.38,1.21,39.3,.27,3.63,1.21,7.27,2.02,10.77,.27,1.21-1.62,1.35-1.75,.27-2.83-12.92-3.77-25.98-3.91-39.17,0-3.23,.27-6.46,.54-9.69Z"/>
  <path class="cls-1" d="M15.76,157.38c.54-2.69,1.08-5.52,2.29-8.08,1.08-2.42,2.56-4.58,4.18-6.46,1.89-2.15,3.91-4.17,6.2-6.46,2.25-2.06,4.54-4.13,6.87-6.19,.45-.36,.9-.76,1.35-1.21,3.14-2.78,6.33-5.52,9.57-8.21,.81-.81,1.89,.67,1.08,1.35-3.05,2.6-6.06,5.2-9.03,7.81-.54,.45-1.03,.9-1.48,1.35-2.29,2.02-4.72,4.17-7.27,6.73-3.64,3.37-7.27,6.86-9.43,11.31-1.35,2.42-1.89,5.25-2.43,7.94-.63,2.78-1.08,5.56-1.35,8.35-.4,3.37-.4,8.07-.67,11.31-.63-1.88-1.21-3.86-1.75-5.92,.4-4.58,.94-9.02,1.89-13.59Z"/>
  <path class="cls-1" d="M123.67,197.76c3.37,.13,6.74-.13,10.1,0,2.43,.13,4.98,.13,7.41,.13,2.16,0,4.58,.13,6.6-.54,1.21-.4,2.02-1.21,2.69-2.29,.67-1.08,1.08-2.29,1.48-3.5,.4-1.61,.81-3.23,1.08-4.85,2.69-13.06,5.39-26.24,7.95-39.3,.81-3.63,1.62-7.27,2.02-10.9,.13-1.48,.13-3.23-.67-4.58-.67-1.08-1.75-1.88-3.1-1.62-1.08,.14-1.35-1.61-.27-1.88,3.1-.54,5.39,2.29,5.79,4.98,.27,1.61,0,3.23-.27,4.85-.27,1.71-.54,3.46-.81,5.25-1.35,6.86-2.83,13.73-4.18,20.73l-4.31,20.73c-.27,1.71-.63,3.37-1.08,4.98-.27,1.48-.67,3.1-1.21,4.44-.54,1.35-1.35,2.56-2.43,3.37-1.08,.94-2.42,1.48-3.77,1.75-1.48,.27-2.96,.13-4.45,0-6.33-.14-12.53,.4-18.86,0-1.21,0-.94-1.75,.27-1.75Z"/>
  <path class="cls-6" d="M117.34,200.72c1.35-.4,2.69-1.08,3.77-2.02,1.08-1.21,1.48-2.56,1.48-4.17-.14-3.36-.81-6.86-1.62-10.09-.13-.54,0-1.08,.54-1.21,.4-.13,.94,0,1.08,.54,.54,1.88,.94,3.81,1.21,5.79,.4,1.88,.54,3.77,.54,5.65-.13,1.75-.67,3.37-2.02,4.71-1.21,1.21-2.69,2.02-4.31,2.42-.54,.14-1.08,0-1.21-.4-.14-.54,0-1.08,.54-1.21Z"/>
  <path class="cls-1" d="M131.89,105.83c5.52-7.54,6.33-17.09,9.97-25.57,.81-2.02,2.02-4.17,3.91-5.38,1.75-1.08,4.18-1.48,6.06-.27,1.89,1.08,2.7,3.5,2.56,5.65,0,1.21-.4,2.42-.81,3.77-.36,1.26-.76,2.51-1.21,3.77-1.75,5.65-3.91,11.17-6.33,16.55-.4,1.08-2.16,.4-1.62-.67,1.98-4.58,3.77-9.2,5.39-13.86,.81-2.29,1.62-4.71,2.29-7.13,.54-1.88,.94-4.31-.4-5.92-1.21-1.48-3.37-1.35-4.85-.4-1.75,1.08-2.69,3.1-3.5,4.98-1.62,4.04-2.69,8.21-4.04,12.38-1.35,4.58-3.1,9.29-6.06,13.19-.67,.94-2.02-.13-1.35-1.08Z"/>
  <path class="cls-1" d="M163.82,65.05c.81-.27,1.08-.4,1.35-.4,.81-.54,1.08-.67,1.21-.81,.27-.18,.49-.36,.67-.54,.81-.81,1.08-1.21,1.35-1.62,.27-.4,.94-.54,1.35-.27,.4,.4,.4,.94,.14,1.35-1.35,2.15-3.5,3.5-5.93,4.04-.4,.13-.94-.27-.94-.81-.13-.4,.27-.81,.81-.94Z"/>
  <path class="cls-1" d="M157.76,61.55c.18-2.06,.36-4.13,.54-6.19,.13-.4,.54-.81,1.08-.67,.54,0,.81,.54,.81,.94-.27,2.06-.49,4.13-.67,6.19,0,.54-.54,.81-1.08,.81-.4-.13-.81-.54-.67-1.08Z"/>
  <path class="cls-1" d="M148.33,55.09c.54-.13,1.08,.13,1.21,.54,.81,2.15,1.75,4.04,3.1,5.79,.27,.4,.27,1.08-.13,1.35-.4,.27-1.08,.27-1.35-.13-1.35-1.97-2.43-4.08-3.23-6.33-.27-.4,0-.94,.4-1.21Z"/>
  <path class="cls-1" d="M61.16,178.51c0-2.51,.04-4.98,.13-7.4,0-.54,.54-.94,1.08-.81,.54,0,.67,.54,.67,1.08l-.54,26.24c0,2.42-.04,4.89-.13,7.4,0,.54-.54,.81-.94,.81-.54-.13-.81-.54-.81-1.08,.18-8.79,.36-17.54,.54-26.24Z"/>
  <path class="cls-9" d="M48.09,215.93c7.95-7,16.57-13.19,25.6-18.57,2.6-1.43,5.25-2.87,7.95-4.31,.4-.13,.94,.13,1.21,.54,.13,.54-.13,.94-.54,1.21-9.3,4.71-18.05,10.36-26.27,16.82-2.34,1.88-4.58,3.81-6.74,5.79-.94,.67-2.02-.67-1.21-1.48Z"/>
</svg>