<svg width="232" height="267" viewBox="0 0 232 267" fill="none" xmlns="http://www.w3.org/2000/svg">
<path d="M109.797 21.8473C170.555 21.8473 219.728 70.9728 219.728 131.539C219.728 161.418 207.738 188.47 188.473 208.255C168.535 228.578 140.648 241.364 109.797 241.364C92.2831 241.364 75.7126 237.192 61.0282 229.924C24.7885 211.889 0 174.608 0 131.539C0 70.9728 49.1727 21.8473 109.797 21.8473Z" fill="#DADEF1"/>
<path d="M38.5298 95.3337C48.3644 118.08 74.7695 128.443 97.5372 118.618C120.305 108.793 130.678 82.4131 120.843 59.8019C120.574 58.9943 120.215 58.1867 119.766 57.3792C133.328 50.5599 140.198 47.3746 140.378 47.8233C140.647 48.2271 140.782 48.6308 141.186 49.3037C141.366 49.7524 141.545 50.2459 141.725 50.7843C142.264 51.7264 142.668 52.8031 143.072 54.0144C143.207 54.4182 143.476 54.9566 143.746 55.7642C143.925 56.2128 144.06 56.6614 144.15 57.1101C144.285 57.6484 144.42 58.0522 144.689 58.8597C144.779 59.3084 144.913 59.7121 145.093 60.071C147.653 69.8961 147.922 79.8559 146.171 89.4118C146.081 89.9501 145.991 90.4884 145.901 91.0268C145.812 91.5652 145.677 92.1035 145.497 92.6419C145.407 93.1803 145.318 93.7186 145.228 94.257C145.048 94.7056 144.913 95.1543 144.824 95.6029C144.464 96.7694 144.105 97.9358 143.746 99.1022C143.656 99.4611 143.522 99.8201 143.342 100.179C142.803 101.615 142.219 103.05 141.591 104.486C141.501 104.755 141.366 105.024 141.186 105.293C141.007 105.832 140.782 106.37 140.513 106.909C139.974 107.896 139.435 108.882 138.896 109.869C138.627 110.408 138.357 110.901 138.088 111.35C132.429 121.175 124.212 129.52 113.973 135.442C113.075 135.98 112.221 136.474 111.413 136.922C110.874 137.191 110.335 137.461 109.797 137.73C109.347 137.999 108.854 138.223 108.315 138.403C107.776 138.672 107.237 138.896 106.698 139.076C106.159 139.345 105.62 139.569 105.081 139.749C104.542 140.018 104.004 140.242 103.465 140.422C103.016 140.601 102.522 140.78 101.983 140.96C69.111 152.266 32.1979 136.384 18.187 104.082L38.5298 95.3337Z" fill="white"/>
<path d="M53.349 15.6562C86.2207 1.52416 124.212 15.5216 140.108 47.1504L119.766 57.3792C109.258 36.3831 83.9303 26.9618 61.971 36.3831C50.6545 41.363 42.4367 50.246 38.1256 60.8786L17.3789 52.6685C23.8455 36.6523 36.2396 23.0586 53.349 15.6562Z" fill="#36174D"/>
<path d="M53.349 5.56195C86.2207 -8.70464 124.212 5.42739 140.108 37.0562L119.766 47.285C109.258 26.1543 83.9303 16.8676 61.971 26.2889C50.6545 31.1342 42.4367 40.1518 38.1256 50.7844L17.3789 42.5743C23.8455 26.5581 36.2396 12.9644 53.349 5.56195Z" fill="#F66957"/>
<path d="M15.7624 57.5139C16.0319 56.4372 16.3912 55.3604 16.8402 54.2837C17.0199 53.7453 17.1997 53.2069 17.3793 52.6686L38.126 60.8786C33.815 71.5113 33.6804 83.8936 38.5303 95.3338L18.1874 104.082C11.5862 88.7389 11.1819 72.3188 15.7624 57.5139Z" fill="#19C5FF"/>
<path d="M58.6035 154.823C43.7843 128.712 42.0331 92.1036 44.5927 70.4345C49.0385 33.2875 104.947 41.363 119.901 63.4358C134.72 85.374 137.684 86.72 165.706 77.4332C196.557 67.2044 223.231 85.2395 229.024 121.444C236.568 169.224 195.613 198.565 161.934 202.468C90.6667 210.543 73.5574 180.799 58.6035 154.823Z" fill="#36174D"/>
<path d="M103.869 61.9553L115.589 68.6849C119.092 70.8383 122.595 72.8572 126.232 74.7414C129.735 76.4911 133.373 78.1062 137.145 78.9137C141.052 79.8558 145.093 79.8559 149 79.0484C153.176 78.2408 156.948 76.4911 160.99 75.1452C165.032 73.7993 169.073 72.588 173.25 71.6459C181.198 69.8962 189.551 69.3578 197.499 70.8383C204.639 72.1842 211.645 75.1452 217.303 79.8559C222.692 84.2973 226.599 90.0848 228.889 96.5451C231.179 103.14 232.122 110.004 231.987 117.003C231.718 123.598 230.506 130.193 228.215 136.519C225.925 142.575 222.557 148.228 218.111 153.073C213.935 157.649 208.681 161.283 202.619 163.033C201.182 163.481 199.7 163.795 198.173 163.975C196.96 164.11 196.691 162.225 197.903 162.091C203.966 161.418 209.489 158.591 214.07 154.554C218.65 150.516 222.288 145.132 224.982 139.479C227.676 133.692 229.293 127.366 229.832 121.041C230.506 114.176 230.101 107.312 228.35 100.717C226.599 94.3916 223.366 88.3351 218.785 83.4898C213.8 78.3754 207.199 75.1452 200.328 73.261C192.649 71.3767 184.566 71.5113 176.887 72.7226C172.711 73.5301 168.669 74.4722 164.762 75.8181C160.721 77.0295 156.948 78.6445 152.907 79.8559C149.135 81.0672 145.093 81.7402 141.051 81.3364C137.279 81.0672 133.642 79.9905 130.139 78.51C126.502 77.0295 122.999 75.1452 119.496 73.1263C115.859 70.9729 112.221 68.8195 108.449 66.666C106.563 65.5893 104.722 64.5125 102.926 63.4358C101.848 62.8974 102.926 61.417 103.869 61.9553Z" fill="#36174D"/>
<path d="M22.768 144.459C24.7887 142.171 28.2912 138.807 32.6022 135.307C37.4522 137.999 54.5618 146.074 78.6767 145.132C102.792 144.056 107.641 127.501 105.082 113.234C103.465 104.755 98.4802 98.1603 94.5734 94.1226C101.309 92.5075 108.584 91.2962 114.647 91.4307C122.056 91.6999 130.14 93.988 137.953 97.2181C149.27 101.929 160.451 108.524 169.074 113.234C169.612 113.504 170.151 113.773 170.69 114.042C185.644 121.714 213.262 129.924 202.215 157.245C194.132 177.165 175.136 171.377 164.628 166.263C162.607 165.186 160.856 164.244 159.509 163.437C158.521 162.898 157.757 162.405 157.218 161.956L152.773 162.629C149.674 159.264 145.767 155.361 141.591 151.727C141.411 151.548 141.231 151.368 141.052 151.189C130.948 142.979 117.88 146.209 115.994 150.92C113.973 155.63 109.662 174.204 106.564 178.645C104.498 181.517 96.4147 186.99 82.3141 195.065L106.833 227.905C93.2263 241.499 77.8681 256.169 68.9766 261.957C51.0589 273.397 27.0789 263.437 24.6539 251.324C22.0942 239.211 16.0319 201.66 15.6277 181.337C15.3583 161.149 15.8972 152.669 22.768 144.459Z" fill="#FFBB4D"/>
<path d="M90.1275 72.9917C94.5284 75.6835 97.5371 78.5996 99.1537 81.7401C98.7944 85.7778 98.8842 88.8733 99.4231 91.0268C100.231 94.3915 103.33 102.871 99.1537 107.985C95.1121 113.234 89.0497 116.464 80.9665 115.926C69.9195 115.253 66.0126 112.427 62.7793 107.043C61.522 104.89 60.8931 101.301 60.8931 96.2758C66.7309 96.9039 72.3443 93.8532 77.733 87.1237C82.2237 81.5606 86.3554 76.85 90.1275 72.9917Z" fill="#FFA895"/>
<path d="M61.1631 91.6998C64.9353 92.3728 67.36 96.0068 66.6864 99.6407C66.0128 103.409 62.3754 105.832 58.6032 105.159C54.9658 104.486 52.5408 100.852 53.2144 97.2181C53.888 93.4496 57.3909 91.0269 61.1631 91.6998Z" fill="#FFA895"/>
<path d="M61.1629 194.931C61.5221 194.213 61.9262 193.495 62.3752 192.777C64.6655 189.143 67.6294 185.644 70.5933 182.548C74.096 178.78 78.0027 175.55 81.9096 172.32C89.8581 165.994 98.2107 160.206 106.159 153.881C110.066 150.65 113.973 147.151 117.476 143.517C120.08 140.646 122.55 137.595 124.885 134.365C125.873 133.019 126.816 131.673 127.714 130.327C128.972 128.353 130.139 126.379 131.217 124.405C130.409 123.777 129.555 123.149 128.657 122.521C127.58 121.983 128.792 120.502 129.735 121.175C130.543 121.713 131.352 122.297 132.16 122.925C132.834 122.521 133.912 123.059 133.507 124.001C138.896 128.443 143.072 134.365 145.767 140.825C149.135 148.766 150.213 157.649 148.865 166.128C148.057 170.435 146.71 174.742 144.554 178.511C144.375 178.87 144.195 179.229 144.016 179.587C141.725 183.76 138.896 187.797 137.01 192.374C136.067 194.931 135.663 197.353 135.528 200.045C135.393 202.737 135.394 205.429 134.585 207.986C133.777 210.543 132.026 212.562 129.87 214.043C127.984 215.523 125.828 216.734 123.673 217.946C119.631 219.965 115.455 221.58 111.144 222.656C106.294 223.868 101.309 224.541 96.3246 224.541C86.8942 224.675 77.3292 222.791 68.8419 218.619C66.6863 217.632 64.6205 216.51 62.6446 215.254C61.6567 214.626 60.6688 213.953 59.6808 213.235C59.2318 212.876 58.7827 212.517 58.3336 212.158C58.0642 212.024 57.7948 211.889 57.66 211.62C57.3906 211.216 57.3907 210.812 57.3907 210.409C56.7171 205.025 58.4685 199.507 61.1629 194.931Z" fill="#FFBB4D"/>
<path d="M37.1831 130.731C39.2039 128.847 41.2246 126.963 43.2454 125.213C50.2509 119.156 56.4478 113.638 58.1992 111.619C60.7139 108.748 62.1959 103.634 62.645 96.2759L73.0183 100.583C79.6645 98.0705 86.8496 95.917 94.5735 94.1225C98.2109 97.891 102.791 103.813 104.677 111.35C104.767 111.978 104.902 112.606 105.082 113.234C105.486 116.061 105.756 119.022 105.621 121.983C104.947 133.557 97.9418 144.325 78.6768 145.132C74.9047 145.222 71.3121 145.177 67.8992 144.998C62.3757 144.594 57.2561 143.786 52.8104 142.71C42.5717 140.422 35.4316 136.922 32.333 135.173C33.8598 133.737 35.4766 132.256 37.1831 130.731Z" fill="#FFA895"/>
<path d="M43.245 125.213C48.3644 127.905 53.0794 131 57.5251 134.634C61.2973 137.73 64.8002 141.229 67.8988 144.998C70.5034 147.959 72.8385 151.099 74.9042 154.419C77.1495 157.829 79.0806 161.418 80.6972 165.186C86.2207 161.822 91.4746 158.322 96.3245 154.284C101.085 150.336 105.44 146.03 109.392 141.364C111.368 139.121 113.209 136.788 114.916 134.365C112.222 129.924 109.123 125.751 105.62 121.983C102.926 119.111 100.097 116.42 97.1329 113.907C96.7737 113.638 96.4144 113.369 96.0551 113.1C95.6061 112.651 95.1119 112.247 94.5731 111.888C95.6508 111.081 96.639 110.139 97.5372 109.062C98.1659 108.254 98.7047 107.402 99.1537 106.505C99.6028 106.953 100.097 107.357 100.635 107.716C101.983 108.883 103.33 110.094 104.677 111.35C105.306 111.978 105.979 112.606 106.698 113.234C111.458 117.9 115.949 122.88 120.17 128.174C121.786 130.238 123.358 132.301 124.885 134.365C127.31 137.775 129.555 141.229 131.621 144.728C131.98 145.446 132.385 146.164 132.834 146.882C133.103 147.286 133.103 147.689 132.834 148.093C137.414 158.188 141.86 168.551 144.016 179.587C143.207 181.023 142.399 182.414 141.59 183.76C141.141 184.478 140.737 185.195 140.378 185.913C139.165 188.605 137.279 191.162 136.471 194.123C135.797 197.757 135.663 201.526 135.932 205.16C135.932 206.416 135.977 207.672 136.067 208.928C136.246 209.915 136.381 210.992 136.471 212.158C136.651 213.235 136.74 214.357 136.74 215.523C136.74 216.331 136.875 217.273 136.875 218.08C136.875 219.022 136.875 219.83 136.74 220.772C136.875 222.387 135.393 224.271 133.912 224.271C125.694 225.079 112.356 229.117 107.776 219.83C107.416 218.933 107.057 217.946 106.698 216.869C105.485 212.697 104.138 207.717 100.635 204.756C99.6475 203.859 98.6596 202.916 97.6717 201.929C95.5162 200.045 93.4955 198.161 91.0706 196.68C88.915 195.334 86.6247 194.392 84.1997 193.989C84.065 194.392 83.7957 194.527 83.3916 194.662C83.1221 194.662 82.8527 194.796 82.0444 194.931C81.5953 195.02 81.1463 195.155 80.6972 195.334C80.4277 195.469 80.2928 195.469 79.7539 195.334C74.4998 197.623 69.5152 200.853 65.3389 204.89C64.9348 205.16 64.5306 205.025 63.9917 205.025C63.1834 205.563 62.3751 204.756 62.6445 203.948C62.7343 203.679 62.8241 203.41 62.9139 203.141C62.9139 202.154 62.9139 201.167 62.9139 200.18C62.6445 199.103 62.5099 197.892 62.3752 196.411C62.3752 195.2 62.2404 193.989 62.3752 192.508C61.8363 191.297 62.3753 189.951 61.8364 188.605C61.567 188.067 61.567 187.528 61.8364 186.99C62.1059 186.586 61.432 186.586 61.5667 186.182C62.1056 185.375 62.5997 184.567 63.0488 183.76C63.9469 182.234 64.8901 180.709 65.878 179.184C67.8539 176.133 69.9194 173.172 72.0749 170.301C71.8055 169.224 71.2667 168.282 70.8626 167.474C69.695 165.052 68.4376 162.719 67.0904 160.476C63.0488 154.015 58.3334 147.959 52.8099 142.71C50.5646 140.556 48.1848 138.493 45.67 136.519C42.9756 134.365 40.1465 132.436 37.1826 130.731C39.2034 128.847 41.2242 126.963 43.245 125.213Z" fill="#F66957"/>
<path d="M106.564 178.645C109.662 174.204 113.973 155.63 115.994 150.92C117.88 146.209 130.948 142.979 141.052 151.189C141.231 151.368 141.411 151.548 141.591 151.727C145.767 155.361 149.674 159.264 152.773 162.629L146.575 163.437C140.019 159.847 138.357 159.982 141.591 163.84C146.441 169.762 136.202 195.2 133.508 199.238C132.026 201.256 120.44 214.177 106.833 227.905L82.314 195.065C96.4146 186.99 104.498 181.517 106.564 178.645Z" fill="#FFA895"/>
<path d="M56.7172 96.6796C57.1213 96.2758 57.5255 96.1412 58.0644 96.4104C59.7708 97.4871 61.3873 98.6536 62.9141 99.9098C63.3182 100.314 63.4531 100.852 63.0489 101.256C62.7795 101.659 62.2407 101.794 61.8366 101.39C60.3098 100.044 58.648 98.8779 56.8517 97.8909C56.4475 97.6217 56.4477 96.9487 56.7172 96.6796Z" fill="#F76D6D"/>
<path d="M114.512 101.39C115.59 100.044 117.476 99.3715 119.092 99.6407C121.158 99.9099 122.909 100.717 124.346 102.063C125.828 103.544 127.31 105.966 129.331 106.774C130.948 107.447 132.834 107.178 133.777 105.697C133.867 105.518 134.046 105.383 134.316 105.294C135.528 103.678 136.336 101.525 137.01 99.6407C137.279 98.8332 137.594 98.0256 137.953 97.2181C139.39 93.0009 140.692 88.7837 141.86 84.5666C142.534 82.2785 142.938 80.1251 144.285 78.1062C145.363 76.4911 146.979 75.2798 149 75.1452C150.886 75.0106 152.772 75.8182 153.581 77.5678C154.524 79.8559 153.446 82.2785 152.772 84.432C151.425 88.6492 150.033 92.8663 148.596 97.0835C154.254 98.1602 159.913 99.6407 164.493 103.409C166.649 105.159 168.535 107.447 169.612 110.004C170.151 111.35 170.51 112.696 170.69 114.042C170.825 115.792 170.69 117.676 170.286 119.426C169.478 121.983 168.265 124.271 167.187 126.693C167.996 127.501 173.16 129.475 182.68 132.615C186.901 138.627 185.958 146.658 179.851 156.707C174.732 165.321 165.571 166.263 164.628 166.263C162.607 165.186 160.856 164.244 159.508 163.437C158.52 162.629 157.577 161.777 156.679 160.879C140.648 146.747 130.409 138.672 124.481 117.676C123.134 112.696 119.362 109.466 119.362 109.331C118.149 107.985 116.129 106.639 115.051 105.159C113.973 103.678 113.165 102.871 114.512 101.39Z" fill="#FFA895"/>
<path d="M62.645 187.663C63.5881 194.123 63.588 199.641 62.9144 206.102C62.7797 207.313 61.0286 207.044 61.1633 205.833C61.8369 199.642 61.7019 194.123 60.8936 187.798C60.7589 186.721 62.5103 186.452 62.645 187.663Z" fill="#F66957"/>
<path d="M72.8837 87.9313C74.9045 86.5854 77.3292 85.9125 79.7542 85.5087C80.8319 85.2395 86.8945 84.7011 84.3349 87.6621C83.5265 88.6043 81.9099 88.2005 80.9669 88.3351C78.4072 88.3351 75.8474 88.8735 73.4224 89.5464C73.0183 89.681 72.4793 89.4118 72.3446 89.008C72.2099 88.6043 72.4795 88.2005 72.8837 87.9313Z" fill="#36174D"/>
<path d="M90.6665 96.1415C90.5317 94.7956 90.5317 93.4497 90.6665 92.1038C90.8012 90.6233 90.9358 89.1428 91.8788 88.0661C92.5524 87.1239 94.0345 88.2006 93.3609 89.1428C92.4178 90.2195 92.4179 91.6999 92.4179 93.0458C92.4179 94.3917 92.2832 95.7377 92.8221 97.0836C93.0017 97.6219 93.316 98.1603 93.7651 98.6987C94.304 99.237 94.8427 99.6408 94.9774 100.448C95.2469 101.794 94.4386 103.14 93.3609 103.948C92.4178 104.621 91.2055 103.275 92.1485 102.602C92.6874 102.198 93.0913 101.794 93.226 101.121C93.3607 100.583 92.8221 100.179 92.4179 99.7754C91.4749 98.8332 90.9359 97.4874 90.6665 96.1415Z" fill="#F76D6D"/>
<path d="M93.3612 82.8168C94.9779 81.6055 96.9988 80.9326 99.1543 81.0672C100.906 80.9326 101.04 82.8168 99.9624 82.9514C98.4805 83.086 96.9988 83.6244 95.7863 84.4319C95.1576 84.8806 94.6188 85.374 94.1697 85.9124C93.6308 86.5853 93.2264 87.3929 92.5528 88.0659C92.1486 88.4696 91.6098 88.6042 91.2056 88.0659C89.7237 86.3162 91.8793 83.8935 93.3612 82.8168Z" fill="#36174D"/>
<path d="M81.3707 103.275C81.7749 103.005 82.3136 103.005 82.5831 103.409C82.7627 103.589 82.8975 103.768 82.9873 103.947C83.5262 104.486 83.7955 104.62 83.9302 104.755C85.2774 105.159 85.4122 105.293 85.6817 105.293C87.2983 105.024 87.8371 105.159 87.9718 105.697C88.1066 106.101 87.972 106.639 87.4331 106.774C85.1429 107.447 82.4482 106.639 81.101 104.486C80.9663 104.082 80.9665 103.544 81.3707 103.275Z" fill="#F76D6D"/>
<path d="M144.555 106.639C145.094 105.563 146.71 106.236 146.306 107.312C145.363 109.197 144.285 111.485 144.555 113.638C144.824 115.657 146.441 117.003 148.192 117.81C150.348 118.887 152.503 119.829 154.659 120.637C156.949 121.444 159.239 122.117 161.664 122.252C164.358 122.521 166.918 121.848 169.074 120.233C170.017 119.56 171.095 121.041 170.152 121.713C165.706 125.213 159.778 124.271 154.794 122.521C152.369 121.713 149.944 120.637 147.653 119.56C145.498 118.483 143.612 117.137 142.938 114.715C142.265 112.023 143.342 109.062 144.555 106.639Z" fill="#F76D6D"/>
<path d="M158.296 121.579C160.72 119.56 162.202 116.734 163.011 113.638C163.46 112.023 163.774 110.408 163.954 108.793C164.044 107.896 164.089 107.043 164.089 106.236C164.089 105.787 164.089 105.383 164.089 105.024C163.819 104.486 163.55 104.217 163.415 103.948C163.28 103.544 163.55 102.871 163.954 102.736C166.244 102.198 165.975 105.428 165.84 106.909C165.75 108.972 165.481 110.991 165.032 112.965C164.493 114.984 163.954 117.003 163.011 118.753C162.023 120.368 160.81 121.803 159.373 123.059C158.43 123.732 157.352 122.386 158.296 121.579Z" fill="#F76D6D"/>
<path d="M150.348 118.214C151.426 117.407 152.234 116.195 152.773 114.849C153.446 113.369 153.985 111.754 154.389 110.139C155.467 106.774 156.006 103.275 155.467 99.7752C155.332 98.5639 157.084 98.4294 157.353 99.5061C157.892 103.409 157.219 107.178 156.141 110.812C155.602 112.561 155.063 114.176 154.255 115.926C153.581 117.272 152.773 118.753 151.426 119.695C150.348 120.233 149.27 118.887 150.348 118.214Z" fill="#F76D6D"/>
<path d="M112.76 192.643L123.403 135.576C124.077 131.942 127.58 128.981 131.217 128.981H158.7C162.337 128.981 164.762 131.942 164.089 135.576L153.446 192.643C152.638 196.277 149.135 199.103 145.497 199.103H118.015C114.377 199.103 112.087 196.277 112.76 192.643Z" fill="#19C5FF"/>
<path d="M147.788 149.035L149.808 138.806C150.212 136.518 152.368 134.634 154.658 134.634H155.736C158.026 134.634 159.508 136.518 159.104 138.806L157.083 149.035C156.679 151.323 154.524 153.208 152.233 153.208H151.156C148.865 153.208 147.383 151.323 147.788 149.035Z" fill="white"/>
<path d="M154.254 142.979C156.04 142.979 157.488 141.593 157.488 139.883C157.488 138.174 156.04 136.788 154.254 136.788C152.468 136.788 151.021 138.174 151.021 139.883C151.021 141.593 152.468 142.979 154.254 142.979Z" fill="#36174D"/>
<path d="M152.637 151.054C154.423 151.054 155.871 149.668 155.871 147.959C155.871 146.249 154.423 144.863 152.637 144.863C150.852 144.863 149.404 146.249 149.404 147.959C149.404 149.668 150.852 151.054 152.637 151.054Z" fill="#36174D"/>
<path d="M113.973 157.245C115.051 155.361 116.667 154.015 118.554 153.342C119.497 152.938 120.574 152.804 121.517 152.938C121.787 152.804 122.056 152.669 122.326 152.804L138.088 160.341C140.378 161.418 142.803 162.36 144.555 164.244C146.171 165.859 147.114 168.551 146.171 170.704C145.632 172.05 144.42 172.992 143.072 173.127C143.477 174.069 143.612 175.146 143.342 176.223C142.803 178.107 141.187 179.453 139.301 179.587C137.145 179.587 135.124 178.376 133.238 177.568C131.173 176.581 129.152 175.594 127.176 174.607C125.2 173.531 123.224 172.409 121.248 171.243C119.497 170.166 117.61 169.224 116.129 167.743C114.647 166.532 113.569 164.782 113.165 162.764C112.761 160.879 113.03 158.86 113.973 157.245Z" fill="#FFA895"/>
<path d="M113.03 169.628C113.3 168.416 113.973 167.34 115.051 166.801C115.32 166.622 115.635 166.487 115.994 166.398C115.724 165.725 116.533 164.917 117.072 165.455C121.113 168.686 125.11 171.916 129.062 175.146C130.813 176.626 132.834 177.972 134.181 179.857C135.394 181.472 136.067 183.625 135.393 185.509C134.585 187.663 132.16 188.47 130.139 188.067C127.984 187.663 126.098 186.182 124.481 184.836C122.595 183.356 120.574 181.875 118.688 180.26C117.206 179.049 115.724 177.703 114.647 176.088C113.3 174.204 112.491 171.916 113.03 169.628Z" fill="#FFA895"/>
<path d="M108.449 182.145C108.719 180.619 109.123 179.139 109.662 177.703C110.066 176.626 110.47 175.415 111.279 174.473C112.222 173.396 113.569 172.723 115.051 172.858C116.398 172.993 117.61 173.665 118.553 174.608C118.913 174.967 119.227 175.325 119.496 175.684C119.766 175.684 120.035 175.819 120.17 176.223C120.439 177.03 120.709 177.883 120.978 178.78C121.383 180.126 121.921 181.472 122.595 182.683C122.864 183.087 122.864 183.625 122.326 184.029C122.415 184.388 122.505 184.792 122.595 185.24C123.269 188.201 124.077 191.297 123.942 194.392C123.942 196.95 123.134 199.507 121.248 201.391C119.631 203.141 117.206 203.948 114.647 203.41C112.356 202.737 110.335 201.122 109.123 198.968C107.776 196.546 107.372 193.719 107.372 190.893C107.506 187.932 107.776 184.971 108.449 182.145Z" fill="#FFA895"/>
<path d="M115.994 150.65C116.263 150.112 116.667 149.663 117.206 149.304C120.305 147.016 124.751 146.882 128.388 146.478L138.627 145.401C141.052 145.132 144.016 144.594 146.306 145.805C147.384 146.343 148.192 147.42 148.327 148.632C148.461 149.977 148.057 151.189 147.384 152.265C145.632 154.553 142.534 155.092 139.839 155.496C136.516 156.034 133.193 156.438 129.87 156.707C128.164 156.886 126.502 157.021 124.885 157.111C123.403 157.111 122.056 157.245 120.709 157.111C119.631 156.976 118.688 156.707 117.745 156.303C115.32 154.688 114.916 152.4 115.994 150.65Z" fill="#FFA895"/>
<path d="M113.569 175.819C113.839 175.415 114.512 175.281 114.916 175.684C117.611 178.197 120.35 180.709 123.134 183.221C123.404 183.491 123.538 184.029 123.269 184.433C123 184.836 122.326 184.971 121.922 184.567C119.227 182.055 116.488 179.543 113.704 177.03C113.435 176.761 113.3 176.223 113.569 175.819Z" fill="#F76D6D"/>
<path d="M121.517 159.803C121.921 159.399 122.46 159.399 122.864 159.668C129.78 164.065 136.696 168.417 143.611 172.723C144.015 172.993 144.015 173.666 143.746 173.935C143.476 174.473 142.938 174.473 142.533 174.204C135.618 169.807 128.702 165.456 121.787 161.149C121.383 160.879 121.248 160.207 121.517 159.803Z" fill="#F76D6D"/>
<path d="M119.362 167.474C123.403 170.256 127.445 173.082 131.486 175.954C132.429 176.492 131.352 177.972 130.409 177.299C126.367 174.518 122.325 171.736 118.284 168.955C117.341 168.282 118.419 166.801 119.362 167.474Z" fill="#F76D6D"/>
<path d="M124.347 152.265C127.759 153.97 131.127 155.675 134.45 157.38C136.157 158.188 137.863 159.04 139.57 159.937C141.052 160.61 142.669 161.283 144.016 162.225C145.363 163.033 146.44 164.244 146.845 165.859C146.979 166.936 145.228 167.205 144.959 165.994C144.689 164.513 143.073 163.571 141.86 163.033C139.884 162.046 137.908 161.059 135.933 160.072C131.801 158.008 127.714 155.989 123.673 154.015C122.595 153.477 123.269 151.727 124.347 152.265Z" fill="#F76D6D"/>
<path d="M87.7027 94.7954C88.2416 94.257 88.8702 93.8532 89.5887 93.5841C90.3072 93.3149 91.0705 93.1803 91.8788 93.1803C92.283 93.3149 92.6872 93.8532 92.5524 94.257C92.5524 94.7954 92.1483 95.0645 91.6095 95.0645C88.9151 96.1412 88.7803 96.2759 88.5108 96.2759C88.3761 96.2759 88.1067 96.2759 87.8372 96.1413C87.7025 95.8721 87.5679 95.7375 87.5679 95.4684C87.5679 95.1992 87.568 94.93 87.7027 94.7954Z" fill="white"/>
<path d="M167.188 126.559C167.322 126.155 167.861 126.021 168.4 126.155C175.316 128.309 182.186 130.821 189.012 133.692C190.898 134.5 192.784 135.352 194.67 136.249C195.748 136.788 195.074 138.403 193.997 137.865C187.35 134.814 180.525 132.122 173.519 129.789C171.543 129.071 169.568 128.398 167.592 127.77C167.188 127.636 166.918 126.963 167.188 126.559Z" fill="white"/>
<path d="M66.5517 110.408C66.8211 110.004 67.3598 109.735 67.764 109.87C72.7486 112.561 78.1374 114.849 83.9304 114.849C87.7025 114.984 91.4746 114.042 94.5731 111.888C95.6509 111.081 96.6391 110.139 97.5372 109.062C98.1659 108.254 98.7047 107.402 99.1538 106.505C99.8723 105.069 100.276 103.499 100.366 101.794C100.366 101.256 100.905 100.987 101.309 100.987C101.848 101.121 102.118 101.525 102.118 102.063C102.118 104.082 101.444 105.966 100.636 107.716C99.5578 109.87 97.9412 111.619 96.0552 113.1C95.3367 113.638 94.5733 114.087 93.765 114.446C91.2053 115.792 88.3761 116.464 85.547 116.599C85.0081 118.932 84.1997 121.13 83.1219 123.194C82.8525 123.598 82.4485 123.867 81.9096 123.598C81.5054 123.463 81.2359 122.925 81.5054 122.386C82.4035 120.592 83.1668 118.708 83.7955 116.734C81.3706 116.599 79.0804 116.195 76.7902 115.657C73.4222 114.715 70.189 113.234 67.0904 111.619C66.6862 111.35 66.4169 110.946 66.5517 110.408Z" fill="#F76D6D"/>
<path d="M101.04 83.4899C105.755 84.1628 108.989 88.3351 108.45 93.0458C107.911 97.7565 103.6 100.987 98.8847 100.448C94.3042 99.9099 90.9362 95.603 91.4751 90.8924C92.1487 86.3163 96.4596 82.9515 101.04 83.4899Z" fill="#19C5FF"/>
<path fill-rule="evenodd" clip-rule="evenodd" d="M98.8845 101.121C96.3248 100.852 94.1692 99.6407 92.6873 97.6218C91.2053 95.7375 90.5319 93.3149 90.8013 90.7577C91.4749 85.7779 96.0553 82.1439 101.175 82.8168C103.6 83.086 105.755 84.2973 107.372 86.3162C108.854 88.335 109.527 90.7577 109.123 93.1803C108.854 95.603 107.641 97.7564 105.62 99.3715C104.004 100.583 102.118 101.256 99.962 101.256C99.6027 101.256 99.2438 101.211 98.8845 101.121ZM92.283 91.0268C91.7441 95.1991 94.708 99.1023 99.019 99.6407C101.04 99.9098 103.061 99.3715 104.812 98.1602C106.429 96.8143 107.507 95.0646 107.641 92.9111C107.911 90.8923 107.372 88.8734 106.159 87.2583C104.812 85.6432 103.061 84.5665 100.905 84.2973C100.636 84.2076 100.321 84.1627 99.962 84.1627C96.1898 84.1627 92.8219 87.1237 92.283 91.0268Z" fill="white"/>
<path d="M81.1015 88.335C85.8167 88.8733 89.05 93.1802 88.5111 97.7563C87.8375 102.467 83.6614 105.832 78.9462 105.159C74.231 104.62 70.9977 100.314 71.5366 95.6029C72.2102 91.0268 76.3863 87.662 81.1015 88.335Z" fill="#19C5FF"/>
<path fill-rule="evenodd" clip-rule="evenodd" d="M78.8115 105.967C73.8268 105.294 70.1895 100.583 70.8631 95.6031C71.402 90.4886 76.1171 86.8547 81.2365 87.5277C86.2211 88.2006 89.8584 92.7767 89.1848 97.8911C88.646 102.602 84.6046 105.967 80.0241 105.967C79.6649 105.967 79.2605 105.967 78.8115 105.967ZM72.3448 95.7376C71.806 100.045 74.7698 103.948 79.0808 104.486C83.2572 105.024 87.1642 101.929 87.7031 97.7565C88.242 93.4496 85.2782 89.5465 80.9671 89.0081C80.6079 89.0081 80.2936 89.0081 80.0241 89.0081C76.1173 89.0081 72.749 91.8345 72.3448 95.7376Z" fill="white"/>
<path d="M78.2725 97.0833C78.4072 96.6796 78.542 96.2758 78.6767 96.0066C78.8563 95.8272 78.9908 95.6478 79.0806 95.4683C80.0236 95.0645 80.2931 95.1991 80.4278 95.3337C80.9667 96.4104 81.1016 96.8142 80.9669 97.3525C80.9669 97.6217 80.8771 97.8909 80.6975 98.1601C78.6767 98.4293 78.5417 98.2947 78.407 98.0255C78.2723 97.4871 78.2725 97.2179 78.2725 97.0833Z" fill="#36174D"/>
<path d="M92.418 92.9112C92.5527 92.2382 92.6873 91.969 92.9567 91.6998C93.2262 91.3409 93.5404 91.2064 93.8997 91.2961C94.1691 91.2961 94.4386 91.4307 94.5733 91.8345C94.6631 92.0139 94.7081 92.1933 94.7081 92.3728C93.8998 94.5262 93.6303 94.6609 93.2261 94.5263C92.9567 94.5263 92.6872 94.2571 92.5525 93.9879C92.4627 93.7187 92.418 93.4047 92.418 93.0457C92.418 92.9112 92.418 92.9112 92.418 92.9112Z" fill="#36174D"/>
<path d="M42.7062 72.1842C43.2451 71.6458 43.9189 70.9729 44.5925 70.7037C44.0536 83.759 44.1882 90.0848 45.8049 110.004C46.0743 113.638 47.0173 117.272 47.8256 120.771C48.0951 121.983 46.2089 122.117 46.0742 121.041C43.2451 108.12 42.3022 95.0646 42.1675 81.8747C42.1675 78.6446 42.4368 75.4144 42.7062 72.1842Z" fill="white"/>
<path d="M15.7619 157.38C16.3008 154.688 16.8399 151.862 18.0524 149.305C19.1302 146.882 20.6119 144.728 22.2285 142.844C24.1146 140.691 26.1355 138.672 28.4258 136.384C30.6711 134.32 32.9612 132.256 35.2963 130.193C35.7454 129.834 36.1944 129.43 36.6435 128.981C39.787 126.2 42.9755 123.463 46.2087 120.771C47.0171 119.964 48.0949 121.444 47.2866 122.117C44.2329 124.719 41.2242 127.321 38.2604 129.924C37.7215 130.372 37.2274 130.821 36.7783 131.269C34.4881 133.288 32.0633 135.442 29.5036 137.999C25.8662 141.364 22.2287 144.863 20.0732 149.305C18.726 151.727 18.1871 154.554 17.6482 157.245C17.0195 160.027 16.5704 162.808 16.301 165.59C15.8968 168.955 15.8968 173.665 15.6274 176.896C14.9987 175.011 14.4149 173.037 13.876 170.974C14.2801 166.398 14.8189 161.956 15.7619 157.38Z" fill="white"/>
<path d="M123.673 197.757C127.041 197.892 130.409 197.623 133.777 197.757C136.202 197.892 138.761 197.892 141.186 197.892C143.342 197.892 145.767 198.026 147.788 197.353C149 196.95 149.808 196.142 150.482 195.065C151.156 193.989 151.56 192.777 151.964 191.566C152.368 189.951 152.772 188.336 153.042 186.721C155.736 173.665 158.431 160.476 160.99 147.42C161.799 143.786 162.607 140.152 163.011 136.518C163.146 135.038 163.146 133.288 162.337 131.942C161.664 130.866 160.586 130.058 159.239 130.327C158.161 130.462 157.892 128.712 158.969 128.443C162.068 127.905 164.358 130.731 164.762 133.423C165.032 135.038 164.762 136.653 164.493 138.268C164.224 139.973 163.954 141.723 163.685 143.517C162.337 150.381 160.856 157.245 159.508 164.244C158.071 171.153 156.634 178.062 155.197 184.971C154.928 186.676 154.569 188.336 154.12 189.951C153.85 191.431 153.446 193.046 152.907 194.392C152.368 195.738 151.56 196.95 150.482 197.757C149.404 198.699 148.057 199.238 146.71 199.507C145.228 199.776 143.746 199.641 142.264 199.507C135.932 199.372 129.735 199.911 123.403 199.507C122.191 199.507 122.46 197.757 123.673 197.757Z" fill="white"/>
<path d="M117.341 200.718C118.688 200.314 120.036 199.641 121.113 198.699C122.191 197.488 122.595 196.142 122.595 194.527C122.46 191.162 121.787 187.663 120.978 184.433C120.844 183.894 120.978 183.356 121.517 183.221C121.921 183.087 122.46 183.221 122.595 183.76C123.134 185.644 123.538 187.573 123.808 189.547C124.212 191.431 124.346 193.316 124.346 195.2C124.212 196.95 123.673 198.565 122.326 199.911C121.113 201.122 119.631 201.929 118.015 202.333C117.476 202.468 116.937 202.333 116.802 201.93C116.667 201.391 116.802 200.853 117.341 200.718Z" fill="#F76D6D"/>
<path d="M131.891 105.832C137.415 98.2947 138.223 88.7388 141.86 80.2596C142.669 78.2408 143.881 76.0873 145.767 74.876C147.518 73.7993 149.943 73.3956 151.829 74.6069C153.715 75.6836 154.524 78.1062 154.389 80.2596C154.389 81.4709 153.985 82.6823 153.581 84.0282C153.222 85.2844 152.818 86.5406 152.368 87.7967C150.617 93.4495 148.462 98.9677 146.037 104.351C145.633 105.428 143.881 104.755 144.42 103.678C146.396 99.1023 148.192 94.4814 149.809 89.8156C150.617 87.5276 151.425 85.1049 152.099 82.6823C152.638 80.798 153.042 78.3754 151.695 76.7603C150.482 75.2798 148.327 75.4144 146.845 76.3565C145.093 77.4333 144.151 79.4521 143.342 81.3364C141.726 85.3741 140.648 89.5464 139.301 93.7187C137.953 98.2947 136.202 103.005 133.238 106.909C132.565 107.851 131.218 106.774 131.891 105.832Z" fill="white"/>
<path d="M163.819 65.0508C164.628 64.7816 164.897 64.647 165.167 64.647C165.975 64.1087 166.244 63.9741 166.379 63.8395C166.648 63.6601 166.873 63.4806 167.053 63.3011C167.861 62.4936 168.13 62.0898 168.4 61.686C168.669 61.2823 169.343 61.1477 169.747 61.4168C170.151 61.8206 170.151 62.359 169.882 62.7627C168.535 64.9162 166.379 66.2621 163.954 66.8005C163.55 66.935 163.011 66.5313 163.011 65.9929C162.876 65.5892 163.281 65.1854 163.819 65.0508Z" fill="white"/>
<path d="M157.757 61.5515C157.937 59.4878 158.117 57.424 158.296 55.3603C158.431 54.9565 158.835 54.5528 159.374 54.6873C159.913 54.6873 160.182 55.2257 160.182 55.6295C159.913 57.6932 159.688 59.757 159.509 61.8207C159.509 62.3591 158.97 62.6282 158.431 62.6282C158.027 62.4936 157.623 62.0899 157.757 61.5515Z" fill="white"/>
<path d="M148.327 55.0913C148.866 54.9567 149.404 55.2258 149.539 55.6296C150.347 57.7831 151.29 59.6673 152.638 61.417C152.907 61.8207 152.907 62.4937 152.503 62.7629C152.099 63.0321 151.425 63.0321 151.156 62.6283C149.808 60.6543 148.731 58.5457 147.922 56.3026C147.653 55.8988 147.922 55.3605 148.327 55.0913Z" fill="white"/>
<path d="M61.1631 178.511C61.1631 175.998 61.2078 173.531 61.2976 171.108C61.2976 170.57 61.8366 170.166 62.3754 170.301C62.9143 170.301 63.049 170.839 63.049 171.377L62.5103 197.622C62.5103 200.045 62.4653 202.513 62.3754 205.025C62.3754 205.563 61.8366 205.833 61.4325 205.833C60.8936 205.698 60.624 205.294 60.624 204.756C60.8036 195.963 60.9835 187.214 61.1631 178.511Z" fill="white"/>
<path d="M48.0947 215.927C56.0432 208.928 64.6653 202.737 73.6915 197.353C76.2961 195.918 78.9458 194.482 81.6402 193.047C82.0443 192.912 82.5831 193.181 82.8525 193.585C82.9872 194.123 82.7179 194.527 82.3138 194.796C73.0181 199.507 64.2613 205.16 56.0434 211.62C53.7083 213.504 51.4629 215.433 49.3074 217.407C48.3644 218.08 47.2864 216.734 48.0947 215.927Z" fill="#F66957"/>
</svg>
